<svg viewBox="0 0 490 510" version="1.1" xmlns="http://www.w3.org/2000/svg" desc="Created with imagetracer.js version 1.2.6" ><path desc="l 0 p 0" fill="rgb(0,189,112)" stroke="rgb(0,189,112)" stroke-width="1" opacity="0.996078431372549" d="M 235.5 3 L 252 3.5 L 251.5 5 L 253.5 4 L 254.5 6 L 255.5 4 L 258 4.5 L 257.5 6 L 260.5 5 L 263.5 7 L 265 6.5 L 265.5 8 L 267.5 7 L 267.5 8 L 266 8.5 L 270.5 11 L 273.5 9 L 273.5 11 L 276.5 12 L 279.5 13 L 283 14.5 L 282.5 16 L 284.5 15 L 284.5 17 Q 287.5 16.1 286 20.5 L 286 22.5 L 286 26 L 290.5 28 L 294.5 26 L 295 28 L 300 28.5 L 296 31.5 L 300.5 32 L 304 31 Q 302.7 35.1 306 34 L 305 31.5 L 303.5 27 L 305 28.5 L 307.5 29 L 311 30 L 312.5 32 L 315 33 L 316.5 35 L 316.5 36 L 312.5 37 L 312.5 36 L 314 34.5 L 311.5 34 L 310 35.5 L 309 37.5 L 313.5 41 L 315 40.5 L 312 42.5 L 312.5 41 L 304.5 39 L 305.5 41 L 308 42.5 L 307 45.5 L 308.5 49 L 310.5 48 L 311.5 50 L 309.5 49 L 310 50.5 L 308.5 53 L 307 55.5 L 305.5 59 L 304 60.5 L 301 65.5 L 301.5 67 L 300 67.5 L 300.5 69 L 299 68.5 L 300 70.5 L 298 71.5 L 298 75.5 L 296 80.5 L 297 82.5 L 294.5 88 L 290 84.5 L 290.5 83 L 288.5 84 L 269.5 72 L 268 72.5 L 266 69 L 263.5 69 L 260.5 65 L 258.5 65 L 245.5 61 L 244 61.5 L 244.5 60 L 240 61 Q 241.4 65 234.5 63 L 234.5 61 L 232 62.5 L 232 64.5 L 230.5 66 L 226.5 68 L 224 68.5 L 224.5 70 L 220 71 Q 221.3 74.7 215.5 73 L 215.5 74 L 217 74.5 L 213 75 L 212.5 77 L 211.5 75 L 208.5 77 L 207 76.5 L 209.5 78 L 211 77.5 L 205.5 81 L 204.5 80 L 200.5 84 L 189.5 91 L 187.5 90 L 187.5 92 L 186 91.5 L 184.5 93 L 173.5 99 L 170.5 97 L 169.5 102 L 168 101.5 L 166.5 104 L 155 109 L 153.5 111 L 149.5 113 L 147 114.5 L 146.5 116 L 145 115.5 L 143.5 117 L 132.5 124 L 131 123.5 L 129.5 125 L 105.5 140 L 105.5 138 L 103.5 137 L 101 138 L 102.5 140 L 104 139.5 L 101 141 L 100.5 143 L 99.5 139 L 98 142.5 L 98.5 144 L 96 143.5 L 96.5 142 Q 93.5 142.9 95 138.5 L 96.5 136 L 95 134 Q 99.1 132.3 98 136.5 L 97.5 138 L 100.5 136 L 103 137 L 103 134 L 99 134 Q 101.1 128.8 96.5 130 Q 94.5 134 86.5 132 L 84 134.5 L 84 136 L 80 136 L 80 139.5 L 79 139.5 L 78 136 L 74 136 L 74 137.5 L 73 140 L 56.5 140 L 56 142 L 48.5 142 L 47.5 144 L 40.5 144 L 39.5 146 L 24 146 L 24 160 L 32 160 L 32.5 164 L 48 164 L 48 167.5 L 52 164.5 L 55.5 160 L 63.5 160 L 64 161.5 L 66.5 160 L 69 160.5 L 66 161.5 L 68 162.5 L 66 163 L 62 169.5 L 60.5 198 L 59.5 188 L 58.5 192 L 56.5 187 L 48 188 L 47.5 178 Q 44 182.5 45 191.5 L 41.5 196 L 40 196 L 40 188.5 L 38.5 188 L 36 184 L 40 184 L 40 177.5 L 40 175.5 L 38 168 L 34 168 L 34 169.5 L 32.5 172 L 32 170 L 28.5 170 L 22 175.5 L 30 176 L 30 191.5 L 28 192.5 L 28 208 L 30 208 L 30 215.5 L 31.5 216 L 30.5 218 L 28 219.5 L 27 224 L 29 225.5 L 27 232 L 24.5 231 L 24 232.5 L 28.5 241 L 30.5 240 L 30.5 241 L 27.5 243 L 4.5 257 L 4 255.5 L 6 252.5 L 5 248.5 L 6 245.5 L 5 240.5 L 6 237.5 L 5 234.5 L 6 231.5 L 5 184.5 L 6 180.5 L 5 155.5 L 9 143 L 11 142.5 L 9 141.5 L 13 134 L 15 133.5 L 14 132.5 L 17 129.5 L 18.5 128 L 20 125 L 23.5 123 L 28 119.5 L 27.5 118 L 29.5 117 L 30 119 L 32 118.5 L 31.5 117 L 34 116.5 L 33.5 115 Q 37.9 116.5 37 113.5 Q 41 107.9 49 107 L 50.5 105 L 55 103 L 55.5 101 L 62 98.5 L 62.5 97 L 64 97.5 L 65.5 96 L 70.5 92 L 77 89.5 L 78.5 88 L 83.5 86 L 85 86.5 L 86.5 83 L 88.5 83 L 90 81.5 L 96.5 77 L 99.5 76 L 110 70.5 L 109.5 69 Q 111.3 72.8 113 69.5 L 112.5 68 L 114.5 67 L 114.5 69 L 116.5 70 L 117 68.5 L 116.5 67 L 118 65.5 L 123 63 L 124.5 61 L 135 56.5 L 134.5 55 L 137 54.5 L 137.5 53 L 138.5 54 L 141.5 51 L 149 48 L 150.5 46 L 158.5 41 L 160 41.5 L 161.5 40 L 170.5 34 L 172 34.5 L 173.5 32 L 175.5 33 L 177.5 30 L 179.5 29 L 182 28.5 L 181.5 27 L 185.5 27 L 190 26 L 190.5 23 L 192.5 24 L 192.5 22 L 194 20.5 L 195 20.5 L 195.5 22 L 196 20 L 199 19.5 L 197 18.5 L 205.5 14 L 207 14.5 L 209 11.5 L 212.5 10 L 222.5 6 L 224 6.5 L 226.5 5 L 229.5 6 L 229.5 5 L 228 4.5 L 231.5 4 L 235.5 5 L 235.5 3 Z M 208 37 L 203 41 L 207 45 Q 210 44 208 48 L 212 49 L 211 51 L 205 53 L 204 66 L 197 71 Q 196 73 203 72 L 202 74 L 200 76 L 204 76 L 204 75 L 208 73 L 209 70 L 213 71 L 213 69 L 219 70 L 226 67 L 227 64 L 229 65 L 227 63 L 229 63 Q 232 64 230 60 L 236 58 L 234 57 L 232 52 L 212 40 L 208 40 L 208 37 Z M 160 74 L 157 79 L 157 80 L 148 80 L 148 88 Q 154 86 152 91 L 168 89 L 168 74 L 160 74 Z M 144 100 L 141 101 L 140 104 L 138 105 L 138 112 L 137 114 L 142 112 L 141 114 L 142 117 L 143 114 L 144 116 L 145 115 L 144 112 L 146 113 L 147 109 L 145 110 L 143 108 L 145 104 Q 149 105 147 101 L 144 100 Z " /><path desc="l 0 p 2" fill="rgb(0,189,112)" stroke="rgb(0,189,112)" stroke-width="1" opacity="0.996078431372549" d="M 355.5 55 L 372.5 56 L 389 66.5 L 389.5 68 L 391 67.5 L 390.5 69 L 395 72.5 L 401.5 83 L 412 88 L 412.5 90 L 414 89.5 L 416.5 91 L 421 93 Q 419.5 96.8 422.5 96 L 428.5 100 L 430 99.5 L 429 101.5 L 430.5 102 L 432.5 101 L 439 105.5 L 436 107.5 L 438.5 108 L 440.5 105 L 453 112 L 454.5 114 L 461 117.5 L 460.5 119 L 463 120.5 L 464.5 124 L 466.5 123 L 469.5 128 L 471 127.5 L 473 131.5 L 471 131.5 L 469.5 134 L 466 133.5 L 468 144.5 L 467 147 L 464 148.5 L 461.5 150 L 458.5 146 L 448.5 146 Q 449.3 142.8 444 144 L 441.5 148 L 437 150.5 L 437 155.5 L 440 160 L 438 160.5 L 438 168 Q 441.7 166.7 440 172.5 L 442 175.5 L 440 176 L 438.5 181 L 437 182.5 L 432 184 L 431.5 193 L 429.5 180 L 428 180.5 Q 429.2 172.8 426 169.5 L 426.5 168 L 425 166.5 L 422 161 L 411 154.5 L 412.5 152 L 411.5 150 L 409 151.5 L 409.5 153 L 405.5 151 L 401.5 149 L 390.5 142 L 389 142.5 L 389.5 141 L 387.5 142 L 374 134 L 372.5 131 L 369.5 130 L 367.5 132 L 359.5 131 L 353.5 132 L 345.5 128 L 344.5 129 L 341.5 126 L 336 124 L 334.5 121 L 328 115.5 L 328.5 114 L 326 112.5 L 326.5 111 L 325 108.5 L 325 106.5 L 323 102.5 L 322 90.5 L 324 80.5 L 328 75.5 L 328 73.5 L 329.5 71 L 332 72 L 333.5 69 L 336 67.5 L 334.5 65 L 339.5 63 L 341 63.5 L 342.5 60 L 348.5 57 L 351.5 58 L 351.5 57 L 350 56.5 L 353.5 56 L 355.5 57 L 355.5 55 Z M 363 75 L 363 77 L 361 76 L 350 82 L 347 84 L 347 88 L 344 93 L 345 95 L 342 93 L 344 90 L 346 86 L 341 83 L 342 86 L 342 89 L 338 87 L 336 92 L 338 93 L 339 91 L 340 96 Q 336 98 341 100 L 345 97 L 347 101 L 346 103 L 348 102 L 348 104 Q 352 110 363 110 L 367 110 L 367 108 L 372 106 L 378 96 L 377 90 L 373 82 L 371 80 L 367 78 L 365 77 L 363 75 Z " /><path desc="l 0 p 6" fill="rgb(0,189,112)" stroke="rgb(0,189,112)" stroke-width="1" opacity="0.996078431372549" d="M 206.5 132 L 219.5 132 L 224.5 135 L 227 135.5 L 226.5 137 L 228.5 136 L 234 139.5 L 234.5 141 L 236 140.5 L 236.5 142 L 239.5 143 L 265.5 159 L 267 158.5 L 269.5 160 L 279.5 167 L 280.5 166 L 285.5 171 L 291 173 L 291.5 175 L 294 175.5 L 292 175.5 L 293 178.5 L 292 184 L 297 184 L 297 182.5 L 294.5 179 L 297 178.5 L 297.5 177 L 298 179 L 300.5 180 L 302.5 180 L 306 181.5 L 306.5 184 L 308.5 183 L 316 187.5 L 315.5 189 L 317.5 188 L 318.5 191 L 321.5 190 L 323 194 L 325 193.5 L 324.5 192 L 330.5 196 L 332 197.5 L 336.5 200 L 340 201 L 341.5 203 L 345 204 L 344 208.5 L 346 209 L 344.5 212 L 341 213 L 340 225.5 L 351 231.5 L 348 232 L 345.5 236 L 328 236 L 328 222.5 L 326.5 222 L 325.5 224 L 327 224.5 L 321 232.5 L 327 239.5 L 324 240 L 321.5 244 L 318.5 242 L 315.5 243 L 313.5 243 L 302 244 L 301.5 246 L 300.5 244 L 304.5 242 L 314 241.5 L 309 240 L 308 224 Q 305 225.3 306 221.5 L 297 208.5 L 300 208 L 297.5 204 L 292 206.5 L 290 208.5 L 290 223.5 L 292 228 L 290 228.5 L 292.5 233 L 295 234.5 L 295.5 236 L 296 233.5 L 295.5 232 L 297 232.5 L 297 240 L 295 239.5 L 296 237 L 291 233.5 L 289 232 L 293 239.5 L 291 238.5 L 288.5 237 L 288.5 238 L 290 238.5 L 288.5 239 L 273 228.5 L 270.5 227 L 263.5 222 L 262.5 223 L 259.5 220 L 253 218 Q 254.7 213.9 250.5 215 L 252.5 212 L 255 210.5 L 249 209 L 247.5 211 L 243.5 209 L 243.5 211 L 238.5 209 L 231 205 L 230.5 203 L 229 203.5 L 227.5 202 L 222 199 Q 223.3 196 219.5 197 L 216 194.5 L 221 194 Q 222.3 190.7 217.5 192 L 214.5 194 L 213.5 192 L 216 191.5 L 215.5 188 L 213 189 Q 214 192 211 191 L 209.5 184 L 206.5 182 L 205 181.5 L 204 183.5 L 206 184 L 206.5 188 L 207.5 186 L 208 187.5 L 207.5 190 L 204 188.5 L 205 185.5 L 202.5 187 L 190 180 L 189 176 L 187 174.5 L 183 161.5 L 184 157.5 L 184 155.5 L 184 150.5 L 191.5 140 L 194.5 138 L 206.5 132 Z M 215 172 L 212 175 L 217 182 L 224 182 Q 223 186 229 184 L 228 175 L 226 172 L 215 172 Z " /><path desc="l 0 p 7" fill="rgb(0,189,112)" stroke="rgb(0,189,112)" stroke-width="1" opacity="0.996078431372549" d="M 474.5 132 L 474.5 134 L 477 135.5 L 478 139 L 480 139.5 L 478 140 L 481 143.5 L 482 146.5 L 481 146.5 L 479.5 143 L 477 141.5 L 478 139.5 L 475.5 136 L 474.5 140 L 472 133.5 L 474.5 132 Z " /><path desc="l 0 p 8" fill="rgb(0,189,112)" stroke="rgb(0,189,112)" stroke-width="1" opacity="0.996078431372549" d="M 81.5 144 L 89.5 144 L 90 145.5 L 91 145.5 L 92.5 144 L 95 144.5 L 91.5 148 L 89 146.5 L 90 148.5 L 86 149 L 84.5 152 L 82 151 L 78.5 155 L 76 155.5 L 76.5 157 L 74.5 154 L 74 156 L 72 156.5 L 74 157.5 L 70 158 L 72.5 154 L 74 153.5 L 72 152.5 L 73.5 152 L 76.5 153 L 78.5 152 L 81 151.5 Q 80.2 146.3 84 145.5 L 82.5 145 L 80 146.5 L 81.5 144 Z " /><path desc="l 0 p 10" fill="rgb(0,189,112)" stroke="rgb(0,189,112)" stroke-width="1" opacity="0.996078431372549" d="M 466 172 L 469 173.5 L 470 184 L 467 185.5 L 465.5 187 L 458 188 Q 459.7 193.2 456 192 L 456 188 L 458 188 L 458 184 L 460 182.5 L 466 172 Z " /><path desc="l 0 p 11" fill="rgb(0,189,112)" stroke="rgb(0,189,112)" stroke-width="1" opacity="0.996078431372549" d="M 428.5 184 L 430 192.5 L 430 223.5 L 429 234.5 L 430.5 240 L 431 232.5 L 436 222.5 L 432 219.5 L 431.5 222 L 431 208.5 L 432 195 L 437 197.5 Q 435.7 201.7 440.5 200 L 443 209.5 L 438 213.5 L 438 223.5 L 440 224 L 440.5 222 L 441 224 L 444 222.5 Q 442.3 216.7 446 218 L 446 231.5 L 436.5 256 Q 430.2 253.8 432 259.5 L 431 259.5 L 429.5 253 L 428.5 255 L 428.5 184 Z " /><path desc="l 0 p 12" fill="rgb(0,189,112)" stroke="rgb(0,189,112)" stroke-width="1" opacity="0.996078431372549" d="M 133.5 201 L 133 202.5 L 133 206 L 131 207.5 L 132.5 207 L 135 206.5 L 134 203.5 L 136.5 202 L 139 202.5 L 139.5 204 L 143.5 204 L 155 209 L 155.5 211 L 157 210.5 L 155.5 213 L 157 214.5 L 158 214.5 L 158.5 213 L 162.5 219 L 164 218.5 L 163.5 220 L 165 220.5 L 164 221.5 L 167 224.5 L 166.5 226 L 166 224 L 162.5 222 L 163 223.5 L 164 227 L 162 227.5 L 166 230 L 166.5 227 L 168 230 L 166 230.5 L 166 232.5 L 165.5 235 L 164 230 Q 160.7 228.7 162 233.5 L 164.5 245 L 168.5 239 L 170 242.5 L 168 246.5 L 169 249.5 L 165 258.5 L 164.5 261 L 163 261.5 L 164 262.5 L 158.5 268 L 156 268 Q 157.5 271.7 154.5 271 L 151.5 273 L 150.5 272 L 147.5 275 L 146 276.5 L 145 276.5 L 144.5 275 L 142 276.5 L 142.5 275 L 141 276.5 L 139.5 278 L 137 276.5 L 138 278.5 L 135.5 279 L 132.5 278 L 127.5 281 L 125 281.5 L 124.5 283 L 124 280 L 121 281.5 L 123 282.5 L 119 285 Q 120.3 282 116.5 283 L 116.5 281 L 114 280.5 L 120 279 Q 118.3 274.5 123.5 276 L 122.5 274 L 120.5 275 L 116.5 274 L 111 276 L 110.5 279 L 110 272 L 107 273.5 L 105.5 275 L 100 278.5 L 99.5 280 L 94 280 L 94 282.5 L 93 288.5 L 96.5 290 L 98.5 290 L 102 289.5 L 102.5 287 L 105 288.5 L 107 288.5 L 105 292.5 L 107.5 291 L 109 289.5 L 111 288.5 L 110.5 291 L 99.5 298 L 97.5 298 L 96 300 L 92.5 300 L 92.5 302 L 89.5 303 L 86 304 L 88.5 299 L 90.5 300 L 89.5 298 L 88 297.5 L 91.5 296 L 93.5 297 L 95.5 297 L 97 296.5 Q 93.9 291.6 85 292.5 L 86 289.5 L 84 288 L 83.5 291 L 83 285.5 L 87.5 283 L 90 282.5 L 93 277.5 L 91 272 L 84.5 272 L 84 273.5 L 76 278.5 L 75.5 280 L 63.5 280 L 56 288.5 L 56 307.5 L 54.5 309 L 53 310.5 L 52 313.5 L 56 319.5 L 57 325.5 L 56 328 L 52 328 L 52 335.5 L 50 337.5 L 48 347.5 L 51 349 L 52.5 352 Q 59 353 60 348.5 L 63 344.5 L 60 344 Q 61.3 340.7 56.5 342 L 56.5 341 Q 62.2 342.6 60 337 L 56 336.5 L 60 336 L 59 332 Q 55.7 333.3 57 328.5 L 58 328.5 L 59.5 332 L 60.5 330 L 62 333.5 L 61.5 336 L 60 336.5 L 64 337 L 65.5 342 L 67 341.5 L 68 345 L 72.5 348 L 74.5 348 L 79 351.5 L 75 358.5 L 75 367.5 L 83 371 L 84.5 368 L 86 367.5 L 82.5 366 L 81 366.5 L 82 364 L 79 362.5 Q 80.8 359.3 82.5 363 L 88 364 Q 86.7 367.3 91.5 366 L 91 364.5 L 90.5 362 L 88 361.5 L 86.5 360 L 84 359.5 L 86.5 358 L 86.5 357 L 84 356.5 L 86.5 356 L 94.5 360 L 104 365 L 104.5 367 L 107.5 368 L 142.5 390 L 145 389 L 146.5 391 L 154 394.5 L 152 395.5 L 155.5 397 L 157 396.5 L 156 399 L 158 397.5 L 160.5 399 L 162 400.5 L 164 400.5 L 161.5 402 L 160 404.5 L 163 403.5 L 162 406.5 L 163.5 406 L 165 406.5 L 160.5 409 L 156 407 L 157 411 L 161 412 L 161.5 414 L 162 412 L 168 415.5 L 170.5 414 L 173 412.5 L 174 408 L 168 410 L 167.5 412 L 167 410.5 L 168 408.5 L 167.5 406 L 166 405.5 L 168 404.5 L 167.5 403 L 171 405.5 Q 170.1 408.5 174.5 407 L 179.5 411 L 181 410.5 L 183.5 412 L 183.5 414 L 192 417 L 192.5 420 Q 194.2 417.3 196 421.5 L 195 423.5 L 197.5 426 L 200 425.5 L 200.5 423 L 201 425 L 204 426.5 L 205.5 429 L 207.5 430 L 209 429.5 L 207.5 431 L 207.5 432 L 210.5 434 L 213 433.5 L 211.5 431 L 210 431.5 L 210.5 429 L 220 433 L 220.5 436 L 222 435.5 L 221.5 437 L 223.5 436 L 226 436.5 L 227.5 439 L 229 438.5 L 232 441.5 L 233.5 444 L 236 443 L 237.5 446 L 238 444.5 L 237 441.5 L 238 438.5 L 238 436.5 L 241 431 L 245 429.5 L 244 427.5 L 245.5 425 L 247 425.5 L 248.5 423 L 251 422.5 L 252.5 421 L 254 421.5 L 255.5 419 L 257 418.5 L 256.5 417 L 264.5 416 L 266 422 L 270 422 L 270 423.5 L 271 423.5 L 270 415.5 L 270.5 414 L 269 413.5 L 270.5 413 L 271.5 416 Q 275.9 414.5 275 417.5 L 276 420 L 280 421 L 280.5 423 L 285 421 L 286.5 424 L 287.5 421 L 289.5 422 L 291.5 422 L 295 421.5 L 292 420.5 L 294.5 420 L 297.5 421 L 300 421.5 L 298 422 Q 296.5 425.8 299.5 425 L 302 426 L 302.5 428 L 306 427.5 L 313 440.5 L 313.5 444 L 308.5 442 L 307 446 Q 310 445 309 448 Q 305.3 446.6 307 452.5 L 308 456 L 310 454.5 L 312.5 448 L 313 453.5 L 313 455.5 L 312.5 457 L 311 456.5 L 312.5 458 L 312 459.5 L 313 461.5 L 308 475 Q 304.3 473.5 305 476.5 L 303.5 480 L 301.5 481 L 299.5 480 L 300 481.5 L 296.5 486 L 291.5 489 L 289.5 489 L 288 488.5 L 288.5 487 L 284 487.5 L 285.5 491 L 287 490.5 L 282 492 L 280.5 494 L 268.5 499 L 266.5 498 L 266.5 500 L 265 499.5 Q 265.9 502.5 261.5 501 L 259.5 502 L 259.5 500 L 254 501.5 L 256 502.5 L 232.5 503 L 230.5 500 L 229.5 502 L 224 501 L 225 497.5 L 223 497 L 222.5 500 L 218 498.5 L 218.5 497 L 216.5 498 L 215.5 496 L 214 496.5 L 213 492 L 209 492.5 L 210 494.5 L 207 492.5 L 206.5 491 L 205.5 493 L 205 491 Q 193.5 488.4 186.5 480 L 184.5 480 L 181 477.5 L 183 476.5 L 180 476 L 179.5 474 L 175 473.5 L 177.5 473 L 179.5 472 L 180 474 L 187.5 477 L 188 474 Q 184.2 475.5 185 472.5 L 184 472.5 L 183.5 474 L 183 472.5 L 184 468.5 L 181 467 L 177.5 460 L 176 459.5 L 176 453 L 170 453 L 170 459.5 L 168 460 L 168 462.5 L 167 465.5 L 166.5 468 L 164.5 465 L 161.5 467 L 154 462.5 L 152 459.5 L 150.5 460 L 148 458.5 L 149.5 459 L 153 456.5 L 151.5 456 L 149.5 456 L 145.5 458 L 143.5 455 L 141 454.5 L 140.5 453 L 137.5 452 L 133 450.5 L 135 449.5 L 129 448 L 127.5 445 L 125 444.5 L 123.5 441 L 122 442.5 L 121 442.5 Q 121.7 439.5 118 441 L 118 438 L 122 437.5 L 122 435.5 L 120.5 434 L 117 435 Q 118.7 430.9 114.5 432 L 112.5 431 L 112 433.5 Q 111.1 436.5 115.5 435 Q 118.5 436.5 115.5 438 L 107 434.5 L 108.5 432 L 106 433.5 L 105 433.5 L 104.5 432 L 102 431.5 Q 104.8 429.8 100.5 428 L 99 428.5 L 101.5 424 L 101 425.5 L 101.5 428 L 103.5 424 L 104 425.5 L 103 429.5 Q 104.5 432.5 106 429.5 L 108 428 Q 106.8 431.7 112 430 L 108 418.5 L 112 416 L 112 404.5 L 110.5 404 L 107 405 L 107 408 Q 103.2 406.5 104 409.5 L 101.5 408 L 100 405.5 L 104 404 L 105 400.5 L 96 400 L 96 408 L 88 408 Q 89.5 411.7 86.5 411 L 78.5 408 L 74 410 L 72.5 413 L 67 411.5 L 67.5 410 L 65.5 409 L 64 409.5 L 66.5 409 L 68.5 410 L 71.5 409 L 76 408 L 77 405.5 L 73.5 404 L 72 404.5 L 69.5 403 L 69.5 404 L 71 405.5 L 68.5 406 L 59.5 402 L 60.5 404 L 62 404.5 L 55.5 405 L 53 403.5 L 55 402.5 L 48 400 L 49 397.5 L 47 397 L 46.5 399 L 46 397 L 41 395.5 L 40.5 394 L 37.5 393 L 33.5 391 L 30 389.5 L 30.5 388 L 29 387.5 L 29.5 386 L 27.5 387 L 22 383 L 21 379 L 19 378.5 L 19.5 377 L 16 374.5 L 15.5 372 L 14.5 374 L 13.5 371 L 12 370.5 L 14 369.5 L 11 369 L 10 366.5 L 12 365.5 L 9 365 L 10.5 363 L 10.5 362 L 8 361.5 L 8.5 360 L 7 357.5 L 5 351.5 L 6 351.5 L 6.5 353 L 7 350.5 L 5 346.5 L 6 341.5 L 5 306.5 L 6 302.5 L 5 298.5 L 9 290 L 13 287.5 L 13.5 284 L 16.5 285 L 16 281.5 L 18.5 280 L 21 279 Q 19.8 276 23.5 277 L 25.5 277 L 27 276.5 L 26.5 275 Q 30.9 276.5 30 273.5 L 31 273.5 L 32 277.5 L 31 280 L 29 279.5 L 29.5 277 L 31 277.5 L 30.5 275 L 27 277.5 L 27.5 279 L 25.5 278 L 26.5 280 L 29.5 282 L 40 282 Q 41 279 38 280 L 38 276.5 L 40 271 L 38 270.5 L 45 266.5 L 47.5 263 L 49 262.5 L 48.5 261 L 50 261.5 L 51.5 260 L 53 260.5 L 55.5 257 L 68 251 L 69.5 249 L 72 248.5 L 73.5 247 L 84.5 241 L 83.5 244 L 88 242 L 87 239.5 L 91 239 L 92 229.5 L 93 226.5 L 100 214 L 107.5 209 L 108 211 L 106 212.5 L 107.5 212 L 111 215.5 L 112 215.5 L 111 211.5 L 112 208 L 110 208.5 L 109.5 211 L 110.5 207 L 113 205.5 L 114 205.5 L 114.5 207 L 115.5 205 L 120.5 204 L 122 203.5 L 121.5 202 L 125.5 204 L 125.5 205 L 122.5 204 L 119 207.5 L 120 208.5 L 121 216.5 L 120 220 L 110.5 220 L 110 222 L 114.5 225 L 117.5 224 L 120 225.5 L 118.5 229 L 117 228.5 L 115.5 230 L 117 227.5 L 116.5 226 L 113.5 227 L 110 223.5 L 108 222 L 104.5 229 L 100 231.5 L 98.5 234 L 95.5 233 L 94 233.5 L 96 234.5 L 95 236.5 L 95.5 238 L 92.5 236 L 92 238 Q 95 237 94 240 L 91.5 239 L 91 241.5 L 96 245 L 96 248 L 104 248 L 104 252 L 112.5 252 L 114 256 L 116 254.5 L 115 252.5 L 115.5 251 L 112 250 L 113.5 248 L 113 244.5 L 112 242.5 L 115 242.5 L 114 245 L 116 245.5 L 114 246.5 L 119.5 253 L 121 252.5 L 122.5 254 L 131.5 257 L 132 255 L 136.5 254 L 138 254.5 L 140.5 253 L 147 244.5 L 148 238.5 L 147.5 237 L 149 236.5 L 147 236 L 148 232.5 L 146 232.5 L 147 230.5 L 146.5 229 L 148.5 230 L 146.5 227 L 143.5 226 L 143.5 228 L 140.5 227 L 139 226.5 L 140.5 226 L 143 225.5 L 143 221 L 136.5 221 L 127 223 L 125.5 225 L 121 224.5 L 122 221 L 127.5 222 L 132 218.5 L 130 206 Q 126.3 207.5 127 204.5 L 127.5 203 L 126 202.5 L 129 202 L 129.5 204 L 130.5 202 L 131 203.5 L 130.5 205 L 132 202.5 L 133.5 201 Z M 153 230 L 154 236 Q 152 240 157 239 L 159 245 L 161 246 L 159 235 L 157 235 L 158 233 L 158 230 L 153 230 Z M 30 320 L 30 328 L 32 328 L 32 332 L 36 336 L 39 328 L 36 324 L 30 320 Z M 30 363 L 27 366 L 31 373 Q 34 372 32 380 L 35 381 L 37 384 L 38 377 L 37 366 Q 36 362 30 363 Z M 22 372 L 23 373 Q 27 374 26 382 L 31 386 L 29 383 L 30 380 L 29 373 L 22 372 Z M 259 425 L 257 431 L 256 430 L 254 432 L 260 436 Q 258 439 257 435 L 256 440 L 260 442 L 261 440 L 263 441 L 262 440 L 264 435 L 261 434 L 264 432 L 261 427 L 259 425 Z M 265 432 L 267 438 L 260 443 L 262 443 L 259 447 L 258 444 L 257 447 L 259 448 L 258 451 L 259 455 L 258 457 L 259 460 L 260 461 L 258 460 L 258 464 L 257 465 L 260 470 L 259 471 L 256 475 Q 261 476 263 473 L 264 472 L 266 472 L 267 472 L 265 468 L 268 467 Q 271 470 279 469 L 280 470 L 279 468 L 281 468 L 282 467 L 286 465 L 287 463 L 288 465 L 291 456 L 293 456 L 296 455 L 295 451 L 294 454 L 292 454 L 291 452 L 292 450 L 292 452 L 293 452 Q 294 448 291 449 L 291 448 L 289 445 L 292 446 L 292 445 L 290 440 L 288 441 L 287 437 L 286 440 L 284 437 L 283 439 Q 282 436 277 437 L 275 437 L 270 436 Q 265 437 267 433 L 265 432 Z M 224 464 L 224 480 L 211 480 Q 210 483 214 482 L 212 491 L 215 492 L 214 491 L 214 488 L 224 488 L 224 486 L 228 488 L 228 486 L 240 486 L 248 482 L 248 480 L 230 480 L 230 464 L 224 464 Z " /><path desc="l 0 p 13" fill="rgb(0,189,112)" stroke="rgb(0,189,112)" stroke-width="1" opacity="0.996078431372549" d="M 48.5 225 L 50 228 L 52 227.5 L 51 225.5 L 52 225.5 L 53.5 227 L 53.5 225 L 56 226.5 L 45 232 Q 43.8 229 47.5 230 L 50 228.5 L 48.5 225 Z " /><path desc="l 0 p 14" fill="rgb(0,189,112)" stroke="rgb(0,189,112)" stroke-width="1" opacity="0.996078431372549" d="M 377.5 228 L 378 229.5 L 377.5 231 L 380 232.5 L 378 233.5 L 381 234 L 380 239 L 382 239.5 L 380 240 Q 381.3 243 377.5 242 L 373 239.5 L 377.5 228 Z " /><path desc="l 0 p 16" fill="rgb(0,189,112)" stroke="rgb(0,189,112)" stroke-width="1" opacity="0.996078431372549" d="M 316 245 L 321 246.5 L 320 250 Q 316.2 248.5 317 251.5 L 314 253 L 315 258.5 L 304 276.5 L 304 280 L 300 280 L 300 281.5 L 296.5 284 L 293.5 283 L 288 285 L 287 295.5 L 288 306 L 296 307 L 296.5 305 L 303.5 305 L 303.5 304 L 299 304 L 299 293.5 L 301 288 Q 306.6 289 308 284.5 L 311.5 280 L 327.5 280 L 328 276 L 329.5 276 L 332 272 Q 338.4 273.3 340 268.5 L 344.5 263 L 352 263.5 L 350 264 L 350 266 L 346 268 L 346 272 L 354 272 L 354 280 L 350 280.5 L 353.5 285 L 355 286.5 L 359 289 L 358 284 L 360.5 285 L 361 283 Q 364 282 363 285 Q 360 284 361 287 L 364 287.5 L 361 288.5 Q 363.7 290.2 359.5 292 L 349.5 298 L 348 292.5 L 350.5 294 L 354 292.5 L 348 290 L 346.5 288 L 344.5 286 L 328 286 L 320 296.5 L 323.5 304 L 328.5 305 L 330 304.5 L 329.5 306 L 331 304.5 L 332 304.5 L 331 306.5 L 333 307.5 L 331.5 308 L 330 307.5 L 328.5 310 L 318.5 316 L 318.5 314 L 316 315.5 L 316.5 317 L 314.5 316 L 314.5 318 L 312 314 L 316.5 312 L 318.5 313 L 320 310 L 316.5 309 L 313.5 310 L 311.5 310 L 308.5 308 L 306.5 312 L 304 312 L 303.5 310 L 293.5 310 L 291 311 L 291 319.5 L 293 322 L 291 322.5 L 291.5 325 Q 294.5 324.1 293 328.5 L 295.5 327 L 297 326.5 L 294 326 L 297.5 321 L 299.5 320 L 300 322 L 296 323.5 L 297.5 324 L 299.5 323 L 298.5 325 L 297 325.5 L 299 326 L 298.5 328 L 297 327.5 L 295.5 329 L 292 330 L 291.5 328 L 291 330.5 L 291.5 332 L 289.5 331 L 289.5 333 L 274.5 342 L 273 341.5 Q 273.7 344.5 270 343 Q 271 340 268 341 L 268 337 L 273 335.5 L 270.5 331 L 269 329.5 L 267 325 L 260 321.5 Q 261.5 309.6 258 304 L 246.5 300 L 245 302.5 L 245.5 304 L 243 304.5 L 243 319.5 L 240 320 L 240 325.5 L 236 328 L 233.5 332 L 229 333 L 227 339 L 219.5 344 L 216 344 L 216 352 L 220 352.5 L 220 361.5 L 218.5 364 L 223.5 365 L 226 364 L 223 368.5 L 224.5 369 L 226 368.5 L 224.5 371 L 221.5 369 L 221.5 371 L 220 373 L 215.5 373 L 213.5 373 L 211.5 372 L 208.5 373 L 202 371 L 201.5 369 L 200 369.5 L 199.5 367 L 198.5 369 L 197.5 366 L 195.5 367 L 195 365 L 191 362.5 L 189.5 361 L 187 356.5 L 188 354.5 L 185 351.5 L 183 340.5 L 187 329 L 189 328.5 L 188 327.5 L 191.5 324 L 195 323 L 196.5 321 L 198 321.5 L 198.5 320 L 203 319.5 L 204.5 317 L 208 315.5 L 207.5 314 L 213 312.5 L 212.5 311 L 214.5 312 L 214.5 310 L 217 309.5 L 217.5 308 L 221 309 L 222.5 307 L 222.5 305 L 224 305.5 L 225.5 303 L 227.5 303 L 230 302.5 L 228 301.5 L 231 301 L 231 299 L 236 299 Q 235 296 238 297 L 238.5 299 L 239 295 L 259 285.5 L 259.5 283 L 291 266 L 291.5 264 L 293.5 265 L 293.5 263 L 295.5 263 L 297 262.5 L 296.5 261 L 301.5 259 L 303 259.5 L 306.5 255 L 309.5 254 L 311.5 253 L 313 253.5 L 311.5 252 L 308 249.5 L 310.5 248 L 314 249 L 314.5 251 L 316 245 Z " /><path desc="l 0 p 17" fill="rgb(0,189,112)" stroke="rgb(0,189,112)" stroke-width="1" opacity="0.996078431372549" d="M 428.5 256 L 430.5 280 L 432 271.5 L 431 261.5 L 432 261.5 L 432 268.5 L 433.5 269 L 437 275 L 440 276.5 L 440 295.5 L 443.5 296 L 452 302.5 L 450 314.5 L 452 319.5 L 450 320 L 450 328 L 458.5 328 L 457.5 330 L 454.5 332 L 448 327.5 L 447.5 320 L 440.5 328 L 439.5 324 L 436.5 328 L 434 320.5 Q 437.8 318.6 436 312 L 431 312 L 431 310.5 L 432 305 L 430 305.5 L 430 322.5 L 432 329 L 429.5 328 L 429 330 Q 432.7 328.5 432 331.5 L 430.5 334 L 432 334.5 L 430 335.5 L 431 338.5 L 429 340.5 L 430.5 343 L 427.5 341 L 425 342.5 L 427.5 336 L 428 339 L 426 340.5 L 427.5 340 L 429 338.5 L 430 336.5 L 428 332.5 L 428 330.5 L 428.5 256 Z " /><path desc="l 0 p 18" fill="rgb(0,189,112)" stroke="rgb(0,189,112)" stroke-width="1" opacity="0.996078431372549" d="M 483.5 257 L 484 279.5 L 483 279.5 L 481 264.5 L 483.5 257 Z " /><path desc="l 0 p 19" fill="rgb(0,189,112)" stroke="rgb(0,189,112)" stroke-width="1" opacity="0.996078431372549" d="M 336.5 290 L 340.5 292 L 347 296.5 L 348 298.5 L 344.5 300 L 343 298.5 L 344 296.5 L 342.5 297 L 341 296.5 L 343 295.5 L 335 291.5 L 336.5 290 Z " /><path desc="l 0 p 20" fill="rgb(0,189,112)" stroke="rgb(0,189,112)" stroke-width="1" opacity="0.996078431372549" d="M 64.5 312 L 67 312.5 L 65.5 314 L 65.5 317 L 67 315.5 L 69.5 312 L 70.5 314 L 69 313.5 L 66.5 318 L 64.5 319 L 64 316.5 L 65 313.5 L 64.5 312 Z " /><path desc="l 0 p 22" fill="rgb(0,189,112)" stroke="rgb(0,189,112)" stroke-width="1" opacity="0.996078431372549" d="M 262.5 342 L 263.5 345 L 269.5 344 L 269.5 345 L 266.5 347 L 263.5 346 L 263.5 348 L 259 347 L 258 344.5 L 260.5 346 L 263 345.5 L 261 344.5 L 263 343.5 L 262.5 342 Z " /><path desc="l 0 p 23" fill="rgb(0,189,112)" stroke="rgb(0,189,112)" stroke-width="1" opacity="0.996078431372549" d="M 423.5 342 L 421 345.5 L 422.5 347 L 423.5 345 L 427 346 L 427.5 343 L 430 344 L 429 346.5 L 437 352.5 L 439.5 356 L 455.5 356 L 456 359 L 450 360 L 449 364 L 430.5 364 L 425 367.5 L 427 368 L 428 376.5 L 416.5 381 L 408 380 L 407.5 376 L 400.5 384 L 392 384 L 392 388 L 390.5 388 L 388 392.5 L 389 395 L 394 396 L 394 400 L 407.5 400 L 408 403.5 L 411 405 L 413.5 410 L 417 410.5 L 416.5 412 L 418 409.5 L 416 404 Q 419 402.8 418 406.5 L 418.5 409 L 421.5 408 L 424.5 409 L 424.5 407 L 427 408 L 427.5 406 L 428 407.5 L 419 412 L 418.5 414 L 417 413.5 L 415.5 415 L 407.5 419 L 405 417.5 L 405.5 416 L 403.5 417 L 401.5 416 L 400.5 418 L 403 418.5 L 400 419 L 400.5 421 L 402.5 420 L 402.5 421 L 400 422.5 L 400.5 424 L 398 423.5 L 397.5 422 L 395.5 422 Q 392.5 421.1 394 425.5 L 395 425.5 L 395.5 424 L 396 427 L 389 426.5 L 393 425.5 L 390 425 L 388.5 422 L 387 420.5 L 388.5 421 L 394 422 Q 392.8 419 396.5 420 L 398 417 L 400 416.5 L 392 416 L 392 418 L 386 418 L 385.5 420 L 368 420 Q 370 426 364 424 L 364 432 L 356.5 432 L 356 434 L 361.5 433 L 368 436.5 L 367 439.5 L 368.5 439 Q 375 440 376 435.5 L 377.5 432 L 378 433.5 L 377 435.5 L 380 433.5 L 382.5 428 L 385 429.5 L 385.5 431 L 392.5 428 L 392.5 429 L 381.5 435 L 379 435.5 L 375.5 439 L 371.5 442 L 370 441.5 L 369.5 443 L 368.5 440 L 366.5 444 L 359 447 L 357.5 450 L 356 449.5 L 354.5 451 L 350.5 454 L 349.5 453 L 345.5 457 L 341.5 459 L 341 457.5 L 342 442.5 L 339 439.5 L 339.5 436 L 338 435.5 L 338.5 432 L 337 429.5 L 332.5 419 L 331 419.5 L 327 413.5 L 327.5 412 L 326 410.5 L 324 410.5 L 323.5 408 L 320.5 405 L 320.5 404 L 323 403.5 L 322.5 402 L 324.5 403 L 324.5 401 L 326.5 402 L 326.5 400 L 328 400.5 L 329.5 399 L 339.5 394 L 341 394.5 L 342.5 391 L 344.5 390 L 345.5 391 L 350.5 386 L 352 386.5 L 354.5 385 L 363.5 378 L 365 378.5 L 365.5 377 L 367 377.5 L 368.5 376 L 370.5 376 L 372 375.5 L 371.5 374 L 373 372.5 L 375 372.5 L 376.5 371 L 378.5 371 L 380 370.5 L 379.5 369 L 383.5 367 L 387 366 L 388.5 364 L 413 350 L 413.5 348 L 415 348.5 L 417.5 347 L 420 346 L 421.5 344 L 423.5 342 Z " /><path desc="l 0 p 24" fill="rgb(0,189,112)" stroke="rgb(0,189,112)" stroke-width="1" opacity="0.996078431372549" d="M 257.5 346 L 258 349.5 L 257.5 352 L 255.5 352 L 252.5 353 L 250.5 353 L 245 353.5 L 253 354.5 L 242.5 360 L 243 358.5 L 242 356.5 L 243.5 354 L 240 355.5 L 241 357.5 L 239 356.5 L 241 352 L 244.5 353 L 247.5 351 L 250.5 350 L 257.5 346 Z " /><path desc="l 0 p 25" fill="rgb(0,189,112)" stroke="rgb(0,189,112)" stroke-width="1" opacity="0.996078431372549" d="M 481.5 354 L 481 355.5 L 482 359.5 L 480 363.5 L 477.5 368 L 476 368.5 L 477 371 L 475 371.5 L 475.5 373 L 473 371.5 L 474 375 L 472 375.5 L 473 376.5 L 468 381.5 L 465 384.5 L 458 389.5 L 457.5 391 L 456 390.5 L 453.5 392 L 449.5 395 L 447.5 394 L 447.5 396 L 445.5 395 L 446 396.5 L 445.5 398 L 444.5 396 L 444 398 L 442 397.5 L 444 394.5 L 441 396.5 L 442 399.5 L 440 398.5 L 442 393.5 L 440 393.5 L 442.5 393 L 444.5 392 L 444.5 394 L 449.5 392 L 449.5 394 L 452.5 391 L 458 386.5 L 457 383.5 L 463 376.5 L 464 370.5 L 464 368.5 L 464 360 L 471.5 360 L 475.5 359 L 479 360 L 481.5 354 Z " /><path desc="l 0 p 28" fill="rgb(0,189,112)" stroke="rgb(0,189,112)" stroke-width="1" opacity="0.996078431372549" d="M 78 411 L 88 415.5 L 86.5 419 L 84.5 418 L 81.5 420 L 79 419 L 78.5 416 L 76.5 417 L 75 414 L 78 412.5 L 78 411 Z " /><path desc="l 1 p 0" fill="rgb(0,0,0)" stroke="rgb(0,0,0)" stroke-width="1" opacity="0" d="M 0 0 L 490 0 L 490 510 L 0 510 L 0 0 Z M 234 1 L 221 4 L 204 12 L 26 117 L 12 132 L 5 147 L 2 163 L 3 166 L 2 238 L 2 258 L 5 261 L 5 260 L 49 232 L 64 225 L 65 224 L 65 172 L 69 164 L 227 70 L 242 64 L 252 65 L 297 91 L 303 67 L 314 50 L 322 44 L 326 38 L 273 6 L 253 1 L 234 1 Z M 354 53 L 334 63 L 325 74 L 320 90 L 321 105 L 328 119 Q 335 128 347 132 L 353 134 L 372 134 L 420 162 L 425 174 L 425 333 L 421 342 L 318 403 L 316 406 L 319 407 L 328 418 L 336 434 L 339 448 L 339 461 L 345 460 L 463 390 Q 481 376 487 351 L 487 156 L 483 142 L 476 130 L 458 113 L 400 80 L 396 71 Q 388 60 376 55 Q 367 51 354 53 Z M 207 130 Q 196 132 190 139 L 182 154 L 183 171 L 189 182 L 307 253 L 194 320 Q 185 326 182 338 L 182 351 L 188 364 L 198 371 L 214 375 Q 227 374 235 368 L 370 288 L 379 278 L 386 258 L 385 241 L 375 222 L 360 210 L 229 134 Q 221 128 207 130 Z M 127 199 L 115 202 L 103 209 Q 91 217 89 235 L 14 280 Q 5 288 2 302 L 3 308 L 2 331 L 2 348 L 5 361 Q 11 376 23 386 L 24 388 L 209 497 L 233 505 L 257 505 L 266 503 L 279 498 L 300 486 Q 311 477 316 462 L 316 443 L 308 427 Q 300 415 284 412 L 263 413 L 246 422 L 234 440 L 203 420 L 188 413 L 85 351 L 72 345 L 65 334 L 66 322 L 72 316 L 127 283 L 148 278 L 156 274 L 167 261 L 172 245 L 171 230 L 162 213 L 147 202 L 127 199 Z " /><path desc="l 1 p 3" fill="rgb(0,0,0)" stroke="rgb(0,0,0)" stroke-width="1" opacity="0" d="M 358.5 80 L 364.5 80 L 373 86.5 L 375 95.5 Q 373.9 102.9 368.5 106 L 360.5 108 L 355.5 107 L 350 102.5 Q 346.5 98.5 348 89.5 L 353.5 82 L 358.5 80 Z " /><path desc="l 1 p 6" fill="rgb(0,0,0)" stroke="rgb(0,0,0)" stroke-width="1" opacity="0" d="M 128.5 226 Q 137.5 225.5 141 230.5 Q 144.9 234.6 144 243.5 L 138.5 252 Q 134.8 255.3 126.5 254 L 117 246.5 L 116 237.5 L 121.5 229 L 128.5 226 Z " /><path desc="l 1 p 7" fill="rgb(0,0,0)" stroke="rgb(0,0,0)" stroke-width="1" opacity="0" d="M 270.5 439 Q 282.3 437.2 286 443.5 L 289 453.5 Q 287.9 460.9 282.5 464 L 272.5 466 L 263 460.5 L 260 451.5 L 265.5 441 L 270.5 439 Z " /><path desc="l 3 p 0" fill="rgb(122,217,186)" stroke="rgb(122,217,186)" stroke-width="1" opacity="0.19607843137254902" d="M 254.5 2 L 272.5 6 L 299 21.5 L 297.5 21 L 274.5 8 L 254.5 3 L 254.5 2 Z " /><path desc="l 3 p 1" fill="rgb(122,217,186)" stroke="rgb(122,217,186)" stroke-width="1" opacity="0.19607843137254902" d="M 224.5 3 L 227 3.5 L 209.5 10 L 209.5 9 L 224.5 3 Z " /><path desc="l 3 p 2" fill="rgb(122,217,186)" stroke="rgb(122,217,186)" stroke-width="1" opacity="0.19607843137254902" d="M 207.5 10 L 206.5 12 L 190.5 21 L 191.5 19 L 207.5 10 Z " /><path desc="l 3 p 3" fill="rgb(122,217,186)" stroke="rgb(122,217,186)" stroke-width="1" opacity="0.19607843137254902" d="M 183.5 24 L 182.5 26 L 156.5 41 L 157.5 39 L 183.5 24 Z " /><path desc="l 3 p 4" fill="rgb(122,217,186)" stroke="rgb(122,217,186)" stroke-width="1" opacity="0.19607843137254902" d="M 306.5 25 L 326 37.5 L 324.5 38 L 306 27 L 306.5 25 Z " /><path desc="l 3 p 5" fill="rgb(122,217,186)" stroke="rgb(122,217,186)" stroke-width="1" opacity="0.19607843137254902" d="M 145.5 46 L 147 46.5 L 112.5 67 L 113.5 65 L 145.5 46 Z " /><path desc="l 3 p 6" fill="rgb(122,217,186)" stroke="rgb(122,217,186)" stroke-width="1" opacity="0.19607843137254902" d="M 353.5 53 Q 367.5 51 375.5 55 Q 388.4 60.1 396 70.5 L 389.5 65 Q 381.6 57.4 369.5 54 L 354.5 54 Q 339.8 57.8 330.5 67 L 333.5 63 L 353.5 53 Z " /><path desc="l 3 p 7" fill="rgb(122,217,186)" stroke="rgb(122,217,186)" stroke-width="1" opacity="0.19607843137254902" d="M 241.5 63 Q 253.5 62.5 259 68.5 L 257.5 68 Q 251.9 63.6 241.5 64 L 233.5 67 L 234.5 65 L 241.5 63 Z " /><path desc="l 3 p 8" fill="rgb(122,217,186)" stroke="rgb(122,217,186)" stroke-width="1" opacity="0.19607843137254902" d="M 106.5 69 L 105.5 71 L 91.5 79 L 92.5 77 L 106.5 69 Z " /><path desc="l 3 p 9" fill="rgb(122,217,186)" stroke="rgb(122,217,186)" stroke-width="1" opacity="0.19607843137254902" d="M 222.5 72 L 221.5 74 L 190.5 92 L 191.5 90 L 222.5 72 Z " /><path desc="l 3 p 10" fill="rgb(122,217,186)" stroke="rgb(122,217,186)" stroke-width="1" opacity="0.19607843137254902" d="M 300.5 73 L 301 74.5 L 296.5 91 L 274 77.5 L 275.5 78 L 297 90 L 300.5 73 Z " /><path desc="l 3 p 11" fill="rgb(122,217,186)" stroke="rgb(122,217,186)" stroke-width="1" opacity="0.19607843137254902" d="M 89.5 79 L 88.5 81 L 71.5 91 L 72.5 89 L 89.5 79 Z " /><path desc="l 3 p 12" fill="rgb(122,217,186)" stroke="rgb(122,217,186)" stroke-width="1" opacity="0.19607843137254902" d="M 357.5 79 L 364.5 79 L 373 85.5 L 368.5 82 Q 365.5 79 358.5 80 L 349 86.5 L 348.5 89 L 348 86.5 L 357.5 79 Z " /><path desc="l 3 p 13" fill="rgb(122,217,186)" stroke="rgb(122,217,186)" stroke-width="1" opacity="0.19607843137254902" d="M 400.5 80 L 420 91.5 L 418.5 91 L 400.5 80 Z " /><path desc="l 3 p 14" fill="rgb(122,217,186)" stroke="rgb(122,217,186)" stroke-width="1" opacity="0.19607843137254902" d="M 65.5 93 L 67 93.5 L 32.5 114 L 33.5 112 L 65.5 93 Z " /><path desc="l 3 p 15" fill="rgb(122,217,186)" stroke="rgb(122,217,186)" stroke-width="1" opacity="0.19607843137254902" d="M 186.5 93 L 185.5 95 L 149.5 116 L 150.5 114 L 186.5 93 Z " /><path desc="l 3 p 16" fill="rgb(122,217,186)" stroke="rgb(122,217,186)" stroke-width="1" opacity="0.19607843137254902" d="M 423.5 93 L 447 107.5 L 445.5 107 L 427.5 97 L 423.5 93 Z " /><path desc="l 3 p 17" fill="rgb(122,217,186)" stroke="rgb(122,217,186)" stroke-width="1" opacity="0.19607843137254902" d="M 326.5 115 Q 333.9 125.6 346.5 131 L 352.5 133 L 371.5 133 L 373 134.5 L 371.5 134 L 352.5 134 L 346.5 132 Q 334.9 127.6 328 118.5 L 326.5 115 Z " /><path desc="l 3 p 18" fill="rgb(122,217,186)" stroke="rgb(122,217,186)" stroke-width="1" opacity="0.19607843137254902" d="M 25.5 117 L 17 126.5 L 5.5 149 L 5 146.5 Q 11.2 127.7 25.5 117 Z " /><path desc="l 3 p 19" fill="rgb(122,217,186)" stroke="rgb(122,217,186)" stroke-width="1" opacity="0.19607843137254902" d="M 463.5 117 Q 474.2 124.3 480 136.5 L 479 136.5 L 463.5 117 Z " /><path desc="l 3 p 20" fill="rgb(122,217,186)" stroke="rgb(122,217,186)" stroke-width="1" opacity="0.19607843137254902" d="M 143.5 118 L 142.5 120 L 110.5 139 L 111.5 137 L 143.5 118 Z " /><path desc="l 3 p 21" fill="rgb(122,217,186)" stroke="rgb(122,217,186)" stroke-width="1" opacity="0.19607843137254902" d="M 206.5 130 Q 218.7 128.3 225 132.5 L 223.5 133 Q 217.7 129.3 206.5 131 Q 197.5 132.5 192.5 138 L 194.5 135 L 206.5 130 Z " /><path desc="l 3 p 22" fill="rgb(122,217,186)" stroke="rgb(122,217,186)" stroke-width="1" opacity="0.19607843137254902" d="M 236.5 139 L 268 157.5 L 266.5 157 L 236.5 139 Z " /><path desc="l 3 p 23" fill="rgb(122,217,186)" stroke="rgb(122,217,186)" stroke-width="1" opacity="0.19607843137254902" d="M 104.5 141 L 103.5 143 L 71.5 162 L 73.5 159 L 104.5 141 Z " /><path desc="l 3 p 24" fill="rgb(122,217,186)" stroke="rgb(122,217,186)" stroke-width="1" opacity="0.19607843137254902" d="M 393.5 146 L 419 161.5 L 417.5 161 L 394.5 148 L 393.5 146 Z " /><path desc="l 3 p 25" fill="rgb(122,217,186)" stroke="rgb(122,217,186)" stroke-width="1" opacity="0.19607843137254902" d="M 485.5 150 L 487 155.5 L 487 350.5 Q 485 363 478.5 371 L 479 369.5 L 486 349.5 L 486 155.5 L 485.5 150 Z " /><path desc="l 3 p 26" fill="rgb(122,217,186)" stroke="rgb(122,217,186)" stroke-width="1" opacity="0.19607843137254902" d="M 278.5 163 L 311 182.5 L 309.5 183 L 288.5 171 L 278.5 163 Z " /><path desc="l 3 p 27" fill="rgb(122,217,186)" stroke="rgb(122,217,186)" stroke-width="1" opacity="0.19607843137254902" d="M 420.5 163 L 423 164.5 L 426 172.5 L 426 331.5 L 425 331.5 L 425 173.5 L 420.5 163 Z " /><path desc="l 3 p 28" fill="rgb(122,217,186)" stroke="rgb(122,217,186)" stroke-width="1" opacity="0.19607843137254902" d="M 68.5 164 L 67 166.5 L 65 171.5 L 65 223.5 L 63.5 225 L 49.5 232 L 49.5 231 L 64 224 L 64 171.5 L 68.5 164 Z " /><path desc="l 3 p 29" fill="rgb(122,217,186)" stroke="rgb(122,217,186)" stroke-width="1" opacity="0.19607843137254902" d="M 315.5 185 L 350 205.5 L 348.5 205 L 315.5 185 Z " /><path desc="l 3 p 30" fill="rgb(122,217,186)" stroke="rgb(122,217,186)" stroke-width="1" opacity="0.19607843137254902" d="M 208.5 192 L 233 206 L 232.5 208 L 209.5 194 L 208.5 192 Z " /><path desc="l 3 p 31" fill="rgb(122,217,186)" stroke="rgb(122,217,186)" stroke-width="1" opacity="0.19607843137254902" d="M 126.5 199 Q 132.5 197.5 134 200.5 L 132.5 200 L 120.5 201 L 110.5 205 L 110.5 204 L 126.5 199 Z " /><path desc="l 3 p 32" fill="rgb(122,217,186)" stroke="rgb(122,217,186)" stroke-width="1" opacity="0.19607843137254902" d="M 353.5 207 L 369.5 216 L 375 221.5 L 371.5 219 L 353.5 207 Z " /><path desc="l 3 p 33" fill="rgb(122,217,186)" stroke="rgb(122,217,186)" stroke-width="1" opacity="0.19607843137254902" d="M 104.5 208 L 96 217.5 L 93.5 222 L 93 220.5 L 102.5 209 L 104.5 208 Z " /><path desc="l 3 p 34" fill="rgb(122,217,186)" stroke="rgb(122,217,186)" stroke-width="1" opacity="0.19607843137254902" d="M 248.5 216 L 276 232.5 L 274.5 232 L 252.5 220 L 248.5 216 Z " /><path desc="l 3 p 35" fill="rgb(122,217,186)" stroke="rgb(122,217,186)" stroke-width="1" opacity="0.19607843137254902" d="M 128.5 225 Q 137.5 224.5 141 229.5 L 139.5 229 L 128.5 226 L 118.5 232 L 120 229.5 L 121.5 228 L 128.5 225 Z " /><path desc="l 3 p 36" fill="rgb(122,217,186)" stroke="rgb(122,217,186)" stroke-width="1" opacity="0.19607843137254902" d="M 89.5 231 L 90 234.5 L 60.5 253 L 60.5 252 L 89 234.5 L 89.5 231 Z " /><path desc="l 3 p 37" fill="rgb(122,217,186)" stroke="rgb(122,217,186)" stroke-width="1" opacity="0.19607843137254902" d="M 141.5 231 Q 146.6 234.4 145 244.5 L 139.5 252 L 141 249.5 Q 145 246 144 237.5 L 141.5 231 Z " /><path desc="l 3 p 38" fill="rgb(122,217,186)" stroke="rgb(122,217,186)" stroke-width="1" opacity="0.19607843137254902" d="M 46.5 233 L 45.5 235 L 11.5 255 L 12.5 253 L 46.5 233 Z " /><path desc="l 3 p 39" fill="rgb(122,217,186)" stroke="rgb(122,217,186)" stroke-width="1" opacity="0.19607843137254902" d="M 279.5 234 L 309 252.5 L 306.5 254 L 304.5 250 L 281.5 237 L 279.5 234 Z " /><path desc="l 3 p 40" fill="rgb(122,217,186)" stroke="rgb(122,217,186)" stroke-width="1" opacity="0.19607843137254902" d="M 54.5 255 L 56 255.5 L 26.5 274 L 26 272 L 54.5 255 Z " /><path desc="l 3 p 41" fill="rgb(122,217,186)" stroke="rgb(122,217,186)" stroke-width="1" opacity="0.19607843137254902" d="M 301.5 256 L 300.5 258 L 273.5 274 L 274.5 272 L 301.5 256 Z " /><path desc="l 3 p 42" fill="rgb(122,217,186)" stroke="rgb(122,217,186)" stroke-width="1" opacity="0.19607843137254902" d="M 384.5 259 L 385 261.5 L 379 278 L 377 277.5 L 384.5 259 Z " /><path desc="l 3 p 43" fill="rgb(122,217,186)" stroke="rgb(122,217,186)" stroke-width="1" opacity="0.19607843137254902" d="M 162.5 266 L 155.5 274 L 146.5 278 L 146.5 277 Q 156.8 273.8 162.5 266 Z " /><path desc="l 3 p 44" fill="rgb(122,217,186)" stroke="rgb(122,217,186)" stroke-width="1" opacity="0.19607843137254902" d="M 18.5 277 L 17.5 279 L 11 284.5 L 3.5 300 L 3 297.5 Q 6.2 286.7 13.5 280 L 18.5 277 Z " /><path desc="l 3 p 45" fill="rgb(122,217,186)" stroke="rgb(122,217,186)" stroke-width="1" opacity="0.19607843137254902" d="M 374.5 282 L 369.5 288 L 349.5 300 L 350.5 298 L 374.5 282 Z " /><path desc="l 3 p 46" fill="rgb(122,217,186)" stroke="rgb(122,217,186)" stroke-width="1" opacity="0.19607843137254902" d="M 125.5 283 L 123.5 286 L 94.5 302 L 94.5 301 L 125.5 283 Z " /><path desc="l 3 p 47" fill="rgb(122,217,186)" stroke="rgb(122,217,186)" stroke-width="1" opacity="0.19607843137254902" d="M 255.5 283 L 253.5 286 L 232.5 298 L 232.5 297 L 255.5 283 Z " /><path desc="l 3 p 48" fill="rgb(122,217,186)" stroke="rgb(122,217,186)" stroke-width="1" opacity="0.19607843137254902" d="M 225.5 301 L 224.5 303 L 191.5 323 L 193.5 320 L 225.5 301 Z " /><path desc="l 3 p 49" fill="rgb(122,217,186)" stroke="rgb(122,217,186)" stroke-width="1" opacity="0.19607843137254902" d="M 91.5 303 L 93 303.5 L 71.5 316 L 66 321.5 L 64.5 332 L 64 324.5 L 68 317 L 91.5 303 Z " /><path desc="l 3 p 50" fill="rgb(122,217,186)" stroke="rgb(122,217,186)" stroke-width="1" opacity="0.19607843137254902" d="M 326.5 312 L 324.5 315 L 304.5 326 L 305.5 324 L 326.5 312 Z " /><path desc="l 3 p 51" fill="rgb(122,217,186)" stroke="rgb(122,217,186)" stroke-width="1" opacity="0.19607843137254902" d="M 302.5 326 L 301.5 328 L 269.5 347 L 270.5 345 L 302.5 326 Z " /><path desc="l 3 p 52" fill="rgb(122,217,186)" stroke="rgb(122,217,186)" stroke-width="1" opacity="0.19607843137254902" d="M 185.5 329 L 186 330.5 Q 181 337 183 350.5 L 184 353.5 L 183 353.5 L 182 337.5 L 185.5 329 Z " /><path desc="l 3 p 53" fill="rgb(122,217,186)" stroke="rgb(122,217,186)" stroke-width="1" opacity="0.19607843137254902" d="M 76.5 347 L 114 369.5 L 112.5 370 L 77.5 349 L 76.5 347 Z " /><path desc="l 3 p 54" fill="rgb(122,217,186)" stroke="rgb(122,217,186)" stroke-width="1" opacity="0.19607843137254902" d="M 412.5 347 L 411.5 349 L 397.5 357 L 398.5 355 L 412.5 347 Z " /><path desc="l 3 p 55" fill="rgb(122,217,186)" stroke="rgb(122,217,186)" stroke-width="1" opacity="0.19607843137254902" d="M 3.5 350 Q 5.6 364.4 13 373.5 L 11 372.5 L 5 360.5 L 3.5 350 Z " /><path desc="l 3 p 56" fill="rgb(122,217,186)" stroke="rgb(122,217,186)" stroke-width="1" opacity="0.19607843137254902" d="M 258.5 352 L 257.5 354 L 237.5 366 L 237 364 L 258.5 352 Z " /><path desc="l 3 p 57" fill="rgb(122,217,186)" stroke="rgb(122,217,186)" stroke-width="1" opacity="0.19607843137254902" d="M 395.5 357 L 394.5 359 L 377.5 369 L 378.5 367 L 395.5 357 Z " /><path desc="l 3 p 58" fill="rgb(122,217,186)" stroke="rgb(122,217,186)" stroke-width="1" opacity="0.19607843137254902" d="M 117.5 371 L 151 391.5 L 149.5 391 L 129 380 Q 130.3 377 126.5 378 L 117.5 371 Z " /><path desc="l 3 p 59" fill="rgb(122,217,186)" stroke="rgb(122,217,186)" stroke-width="1" opacity="0.19607843137254902" d="M 370.5 372 L 372 372.5 L 335.5 394 L 336.5 392 L 370.5 372 Z " /><path desc="l 3 p 60" fill="rgb(122,217,186)" stroke="rgb(122,217,186)" stroke-width="1" opacity="0.19607843137254902" d="M 472.5 379 L 462.5 390 L 455.5 394 L 456.5 392 L 472.5 379 Z " /><path desc="l 3 p 61" fill="rgb(122,217,186)" stroke="rgb(122,217,186)" stroke-width="1" opacity="0.19607843137254902" d="M 329.5 396 L 328.5 398 L 317 404.5 L 324.5 413 L 316 405.5 L 317.5 403 L 329.5 396 Z " /><path desc="l 3 p 62" fill="rgb(122,217,186)" stroke="rgb(122,217,186)" stroke-width="1" opacity="0.19607843137254902" d="M 449.5 396 L 448.5 398 L 420.5 415 L 422.5 412 L 449.5 396 Z " /><path desc="l 3 p 63" fill="rgb(122,217,186)" stroke="rgb(122,217,186)" stroke-width="1" opacity="0.19607843137254902" d="M 42.5 398 L 69 414.5 L 67.5 414 L 43.5 400 L 42.5 398 Z " /><path desc="l 3 p 64" fill="rgb(122,217,186)" stroke="rgb(122,217,186)" stroke-width="1" opacity="0.19607843137254902" d="M 165.5 399 L 191 414.5 L 189.5 415 L 170.5 404 L 165.5 399 Z " /><path desc="l 3 p 65" fill="rgb(122,217,186)" stroke="rgb(122,217,186)" stroke-width="1" opacity="0.19607843137254902" d="M 266.5 412 Q 282.1 409.9 291 414.5 L 288.5 415 L 283.5 413 L 266.5 413 L 262.5 414 L 262.5 413 L 266.5 412 Z " /><path desc="l 3 p 66" fill="rgb(122,217,186)" stroke="rgb(122,217,186)" stroke-width="1" opacity="0.19607843137254902" d="M 195.5 417 L 230 437.5 L 228.5 437 L 195.5 417 Z " /><path desc="l 3 p 67" fill="rgb(122,217,186)" stroke="rgb(122,217,186)" stroke-width="1" opacity="0.19607843137254902" d="M 252.5 417 L 254 417.5 L 242 427.5 L 234.5 441 L 234 439.5 L 245.5 422 L 252.5 417 Z " /><path desc="l 3 p 68" fill="rgb(122,217,186)" stroke="rgb(122,217,186)" stroke-width="1" opacity="0.19607843137254902" d="M 298.5 418 L 308 426.5 L 314 436.5 L 316 446.5 L 315 446.5 L 312 434.5 L 300.5 420 L 298.5 418 Z " /><path desc="l 3 p 69" fill="rgb(122,217,186)" stroke="rgb(122,217,186)" stroke-width="1" opacity="0.19607843137254902" d="M 328.5 418 L 335 427.5 L 339 440.5 L 340 460 L 370.5 443 L 369.5 445 L 344.5 460 L 339 461 L 338 440.5 L 328.5 418 Z " /><path desc="l 3 p 70" fill="rgb(122,217,186)" stroke="rgb(122,217,186)" stroke-width="1" opacity="0.19607843137254902" d="M 402.5 424 L 401.5 426 L 378.5 440 L 378 438 L 402.5 424 Z " /><path desc="l 3 p 71" fill="rgb(122,217,186)" stroke="rgb(122,217,186)" stroke-width="1" opacity="0.19607843137254902" d="M 93.5 428 L 112 439.5 L 110.5 440 L 93.5 428 Z " /><path desc="l 3 p 72" fill="rgb(122,217,186)" stroke="rgb(122,217,186)" stroke-width="1" opacity="0.19607843137254902" d="M 284.5 441 Q 290.5 444.5 290 454.5 L 283.5 464 L 287 459.5 L 289 450.5 L 284.5 441 Z " /><path desc="l 3 p 73" fill="rgb(122,217,186)" stroke="rgb(122,217,186)" stroke-width="1" opacity="0.19607843137254902" d="M 122.5 445 L 149 461.5 L 147.5 461 L 127.5 450 L 122.5 445 Z " /><path desc="l 3 p 74" fill="rgb(122,217,186)" stroke="rgb(122,217,186)" stroke-width="1" opacity="0.19607843137254902" d="M 157.5 466 L 185 481 L 184.5 483 L 157.5 466 Z " /><path desc="l 3 p 75" fill="rgb(122,217,186)" stroke="rgb(122,217,186)" stroke-width="1" opacity="0.19607843137254902" d="M 207.5 495 L 217.5 500 L 231 503.5 L 227.5 504 L 208.5 497 L 207.5 495 Z " /><path desc="l 3 p 76" fill="rgb(122,217,186)" stroke="rgb(122,217,186)" stroke-width="1" opacity="0.19607843137254902" d="M 279.5 496 L 278.5 498 L 261.5 504 L 247.5 505 L 247.5 504 L 261.5 503 L 279.5 496 Z " /><path desc="l 6 p 0" fill="rgb(0,166,101)" stroke="rgb(0,166,101)" stroke-width="1" opacity="0.7725490196078432" d="M 4.5 161 L 5 191.5 L 4 191.5 L 4.5 161 Z " /><path desc="l 6 p 1" fill="rgb(0,166,101)" stroke="rgb(0,166,101)" stroke-width="1" opacity="0.7725490196078432" d="M 426.5 199 L 427 333.5 L 426 333.5 L 426.5 199 Z " /><path desc="l 6 p 2" fill="rgb(0,166,101)" stroke="rgb(0,166,101)" stroke-width="1" opacity="0.7725490196078432" d="M 4.5 200 L 5 236.5 L 4 236.5 L 4.5 200 Z " /><path desc="l 6 p 3" fill="rgb(0,166,101)" stroke="rgb(0,166,101)" stroke-width="1" opacity="0.7725490196078432" d="M 4.5 303 L 5 328.5 L 4 328.5 L 4.5 303 Z " /><path desc="l 10 p 0" fill="rgb(0,184,108)" stroke="rgb(0,184,108)" stroke-width="1" opacity="0.996078431372549" d="M 283.5 14 L 284 16 L 306 27.5 L 306.5 29 L 308 28.5 L 307.5 31 L 305 31.5 L 306 34 Q 302.7 35.1 304 31 L 301.5 31 L 296.5 32 L 297.5 30 L 300 28.5 L 295 28 L 294.5 26 L 288 28 Q 289 25 286 26 L 286 22.5 L 286 20.5 Q 287.5 16.1 284.5 17 L 282 15.5 L 283.5 14 Z " /><path desc="l 10 p 1" fill="rgb(0,184,108)" stroke="rgb(0,184,108)" stroke-width="1" opacity="0.996078431372549" d="M 310 34 L 313.5 37 L 313 35.5 L 313.5 34 L 314 36 Q 317.8 37.5 317 34.5 L 319 35.5 L 319.5 37 L 322.5 38 L 324 38.5 L 321 40.5 L 319.5 42 L 313.5 48 L 312 47.5 L 310.5 51 L 308 49.5 L 309 51.5 L 306 49.5 L 308 49 L 307 43.5 L 308 41 L 304 39.5 L 307.5 39 L 312.5 41 L 312.5 40 L 309 37.5 L 310 34 Z " /><path desc="l 10 p 2" fill="rgb(0,184,108)" stroke="rgb(0,184,108)" stroke-width="1" opacity="0.996078431372549" d="M 207.5 37 L 208 40 L 211.5 40 L 232 52 L 233.5 57 L 236 57.5 L 230 60 Q 231.5 63.7 228.5 63 L 229.5 65 L 231 64.5 L 228.5 65 L 224 67.5 L 226 68.5 L 224.5 69 L 221.5 68 L 218.5 70 L 212.5 69 L 212.5 71 L 208.5 70 L 208 72.5 L 208.5 74 L 205.5 73 L 204 76 Q 198.8 77.7 200 74 L 203 72.5 L 197 72 L 199.5 68 L 204 65.5 L 205 53 L 211 51 L 212 48.5 L 208 48 Q 209.5 44.2 206.5 45 L 203 40.5 L 207.5 37 Z " /><path desc="l 10 p 3" fill="rgb(0,184,108)" stroke="rgb(0,184,108)" stroke-width="1" opacity="0.996078431372549" d="M 337.5 65 L 343 71.5 L 341 72 L 339.5 76 L 336.5 73 L 335.5 74 L 334 72 L 336 71.5 L 332.5 70 L 332 71.5 L 332.5 73 L 329 70.5 L 333.5 68 L 335 67.5 L 334.5 66 Q 337.5 67.5 334.5 69 L 333 69.5 L 335.5 70 L 337.5 65 Z " /><path desc="l 10 p 4" fill="rgb(0,184,108)" stroke="rgb(0,184,108)" stroke-width="1" opacity="0.996078431372549" d="M 160 74 L 168 74 L 168 89 L 152 91 Q 153.6 86.1 148 88 L 148 80 L 156.5 80 L 157 78.5 L 160 74 Z " /><path desc="l 10 p 5" fill="rgb(0,184,108)" stroke="rgb(0,184,108)" stroke-width="1" opacity="0.996078431372549" d="M 423.5 96 L 429 99.5 L 427.5 99 L 426 100.5 L 430.5 103 L 430.5 102 L 429 101.5 L 431.5 100 L 431.5 102 L 433.5 101 L 434.5 103 L 433 102.5 L 434 105.5 L 433 105.5 L 431.5 103 L 429 104 Q 430 107 427 106 L 426 103.5 L 425.5 101 L 424 101.5 L 424.5 103 L 421 102 L 422.5 98 L 425 97.5 L 423.5 96 Z " /><path desc="l 10 p 6" fill="rgb(0,184,108)" stroke="rgb(0,184,108)" stroke-width="1" opacity="0.996078431372549" d="M 143.5 100 L 147 101.5 L 144 102.5 L 143 105.5 L 144.5 110 L 146 109.5 L 145.5 111 L 147 111.5 L 147.5 114 L 150.5 112 L 149.5 114 L 147.5 115 L 144.5 113 L 145.5 116 L 143 115.5 L 142.5 114 L 141.5 117 L 141 113 L 136.5 114 L 138 111.5 L 138 104.5 L 139.5 104 L 141 101 L 143.5 100 Z " /><path desc="l 10 p 7" fill="rgb(0,184,108)" stroke="rgb(0,184,108)" stroke-width="1" opacity="0.996078431372549" d="M 436.5 103 L 440 105.5 L 441.5 108 L 444.5 109 L 446 108.5 L 442 110 L 441.5 112 L 440 109.5 L 439.5 107 L 436.5 108 L 437.5 106 L 439 105.5 L 436.5 103 Z " /><path desc="l 10 p 8" fill="rgb(0,184,108)" stroke="rgb(0,184,108)" stroke-width="1" opacity="0.996078431372549" d="M 468.5 124 L 469.5 127 L 471 126.5 Q 467.2 127.3 468 132.5 L 471 134 L 472 129.5 L 471.5 128 L 474 133 L 477 134.5 L 475.5 134 L 472.5 133 L 473 134.5 L 474 140 L 476 139.5 L 475 136.5 L 476 136.5 L 477.5 139 L 479 138.5 L 478.5 140 L 480 142 L 478 142.5 L 481 144.5 L 484 151.5 L 484 153.5 L 483 156.5 L 485 160.5 L 485 345.5 L 482.5 354 L 480 354.5 L 479 360 L 472.5 359 L 464 360 L 463 369.5 L 464 373.5 L 457 385.5 L 460 388.5 L 458.5 390 L 457.5 387 L 456 387.5 L 456.5 389 Q 454.2 384.8 452 389.5 L 451 394 L 449 395.5 L 446.5 396 L 445 397.5 L 444 397.5 L 443.5 396 L 442.5 399 L 438 400 L 436.5 403 L 432.5 405 L 429.5 407 L 427 406 L 425.5 408 L 422.5 409 L 420.5 408 L 419.5 411 L 419.5 409 L 416.5 412 L 416.5 410 L 412 408.5 L 411 405 L 408 403.5 L 408 400 L 394.5 400 L 394 396 L 391.5 396 L 389 395 L 388 390.5 L 392 388 L 392 384 L 400.5 384 L 407.5 376 L 408 380 L 418.5 381 L 428 376.5 L 427 368 L 425 367.5 L 430.5 364 L 449 364 L 450 360 L 456 359 L 455.5 356 L 439.5 356 L 434.5 350 L 429 346.5 L 430 344 L 427 342.5 L 425 338.5 L 426.5 339 L 428 336.5 L 426 336.5 L 427.5 173 L 428.5 181 L 430 180.5 L 430.5 184 L 431 176 L 429 174.5 L 432 176.5 L 432 184 L 435.5 184 L 437 181 L 440 179.5 Q 438.5 175.1 441.5 176 L 441 174.5 L 440 168 L 438 167.5 L 438 160 L 440 158.5 Q 435.8 157.3 437 150.5 L 444 145.5 L 444 144 L 440 144 L 440 136 L 444 136 L 444 144 Q 449.2 142.3 448 146 L 458.5 146 L 461.5 150 L 464 148.5 L 467 147 L 468 138.5 L 466 133.5 L 465.5 131 L 464 130.5 L 467 129.5 L 466 127.5 L 467.5 128 L 469 127.5 Q 465.3 125.8 468.5 124 Z M 466 172 L 460 183 L 458 184 L 458 188 L 466 187 L 467 186 L 470 184 L 469 174 L 466 172 Z M 429 184 L 429 255 L 430 253 L 431 260 L 432 260 Q 430 254 437 256 L 446 232 L 446 218 Q 442 217 444 223 L 441 224 L 441 222 L 440 224 L 438 224 L 438 214 L 443 210 L 441 200 Q 436 202 437 198 L 432 195 L 431 209 L 432 222 L 432 220 L 436 223 L 431 233 L 431 240 L 429 235 L 430 224 L 430 193 L 429 184 Z M 429 256 L 428 331 L 428 333 L 430 337 L 429 339 L 431 342 L 432 342 L 431 339 L 432 336 Q 434 328 429 330 L 430 328 L 432 329 L 432 322 L 430 320 L 430 306 L 432 305 L 431 311 L 431 312 L 436 312 Q 438 319 434 321 L 437 328 L 440 324 L 441 328 L 448 320 L 448 328 L 455 332 L 458 330 L 459 328 L 450 328 L 450 320 L 452 320 L 450 315 L 452 303 L 444 296 L 440 296 L 440 277 L 437 275 L 434 269 L 432 269 L 432 262 L 431 262 L 432 272 L 431 280 L 429 256 Z M 484 257 L 481 265 L 483 280 L 484 280 L 484 257 Z " /><path desc="l 10 p 9" fill="rgb(0,184,108)" stroke="rgb(0,184,108)" stroke-width="1" opacity="0.996078431372549" d="M 106 128 L 110 128 L 110 135.5 L 107 136.5 L 104.5 140 L 102.5 140 L 101 138.5 L 98.5 138 L 96.5 137 L 95 142 L 97 142.5 L 89 148 L 88.5 146 L 87.5 148 L 87 146.5 L 90 145.5 L 89.5 144 L 81.5 144 L 80 146.5 L 82.5 145 L 84 145.5 L 76.5 156 L 78.5 152 L 74 153.5 L 75 155.5 L 72.5 157 L 72.5 156 L 74 154.5 L 73.5 152 L 68 152 L 68 159.5 L 66.5 160 L 66.5 161 L 68 161.5 L 66 162.5 L 66.5 164 L 64 160 L 55.5 160 L 52 163.5 L 48.5 168 L 48 164 L 32.5 164 L 32 160 L 24 160 L 24 146 L 39.5 146 L 40 144 L 47.5 144 L 48.5 142 L 55.5 142 L 56.5 140 L 72.5 140 L 73 138.5 L 74 136 L 78 136 L 78 137.5 L 79.5 140 L 80 136 L 84 136 L 84 134.5 L 86.5 132 L 95.5 131 L 96 133 L 98.5 132 L 99 134 Q 104.2 131.9 103 136.5 L 105 136.5 L 104.5 138 L 106 136.5 L 106 134.5 L 104.5 133 L 104.5 132 L 106 132 L 106 128 Z " /><path desc="l 10 p 10" fill="rgb(0,184,108)" stroke="rgb(0,184,108)" stroke-width="1" opacity="0.996078431372549" d="M 406.5 140 L 412 142.5 L 411 146 L 413 147.5 Q 411.5 150.5 410 147.5 L 407.5 146 L 405.5 145 L 406 146.5 L 404.5 149 L 405 147.5 L 403 146 L 401.5 148 L 403 145.5 L 404 143.5 L 402 143 L 399.5 147 L 398.5 145 L 401 144.5 L 402.5 142 L 406.5 140 Z " /><path desc="l 10 p 11" fill="rgb(0,184,108)" stroke="rgb(0,184,108)" stroke-width="1" opacity="0.996078431372549" d="M 34 168 L 38 168 L 38 169.5 L 41 176.5 L 40 184 L 36 184 L 36 185.5 L 40 188 L 40 195.5 L 41.5 196 L 45 191.5 Q 44 182.5 47.5 178 L 48 188 L 56.5 187 L 58.5 192 L 59.5 188 L 60.5 198 L 62 169.5 L 63.5 168 L 64 169.5 L 63 221.5 L 60.5 224 L 50 228.5 L 50.5 230 L 48.5 229 L 45 230 L 46 232.5 L 44 232.5 L 43.5 234 L 42.5 232 L 40.5 232 L 37.5 234 L 35 235 L 34.5 239 L 33.5 237 L 31.5 240 Q 27.1 241.5 28 238.5 L 24 231.5 L 25.5 232 L 27 229.5 L 29 224 L 27 222.5 L 29.5 218 L 32 216.5 L 30 216 L 30 208.5 L 28 207.5 L 28 192 L 30 191.5 L 30 176 L 22 175.5 L 28.5 170 L 32 170 L 32.5 172 L 34 168 Z " /><path desc="l 10 p 12" fill="rgb(0,184,108)" stroke="rgb(0,184,108)" stroke-width="1" opacity="0.996078431372549" d="M 214.5 172 L 225.5 172 L 228 174.5 L 229 184 Q 222.7 185.5 223.5 182 L 216.5 182 L 212 174.5 L 214.5 172 Z " /><path desc="l 10 p 14" fill="rgb(0,184,108)" stroke="rgb(0,184,108)" stroke-width="1" opacity="0.996078431372549" d="M 291.5 173 L 293.5 176 L 295 175.5 L 297 178.5 L 298 178.5 L 298.5 177 L 300.5 180 L 298 179 L 299.5 181 L 303 183.5 L 301.5 183 L 298.5 184 L 298.5 183 L 300 182.5 L 297 182 L 296.5 184 L 293.5 180 L 292 179.5 L 293 177.5 L 291.5 175 L 289.5 176 L 287 175.5 L 289.5 175 L 291.5 173 Z " /><path desc="l 10 p 15" fill="rgb(0,184,108)" stroke="rgb(0,184,108)" stroke-width="1" opacity="0.996078431372549" d="M 205.5 181 L 208 182 L 209.5 184 L 212 191.5 L 210.5 191 L 207.5 189 L 206 184 L 204 184.5 L 205 186.5 L 203 187.5 L 204 185.5 L 205 182.5 L 205.5 181 Z " /><path desc="l 10 p 17" fill="rgb(0,184,108)" stroke="rgb(0,184,108)" stroke-width="1" opacity="0.996078431372549" d="M 315.5 188 L 321 190.5 L 318 191.5 L 320.5 193 L 322 192.5 Q 319.3 194.2 323.5 196 L 326 195 L 324.5 197 L 324.5 198 L 328.5 199 L 330.5 199 L 332 199.5 L 330.5 200 L 328.5 200 L 320.5 195 L 318.5 196 L 316 192 L 314 191.5 L 314.5 190 L 312.5 191 L 313.5 189 L 315.5 188 Z " /><path desc="l 10 p 18" fill="rgb(0,184,108)" stroke="rgb(0,184,108)" stroke-width="1" opacity="0.996078431372549" d="M 128.5 201 Q 134.2 199.4 132 205 L 129.5 204 L 127 204.5 Q 126.2 207.5 130 206 L 130 209.5 L 132 218.5 L 127.5 222 L 122 221 L 121.5 224 L 120 223.5 L 119 225.5 L 118 228.5 L 116 234 L 114 234.5 L 115 236.5 L 114 242.5 L 115 244.5 L 114.5 246 L 116 247.5 L 120 252.5 L 117.5 253 L 115.5 252 L 115 253.5 L 116 256 Q 113 257.3 114 253.5 L 112.5 252 L 104 252 L 104 248 L 96 248 Q 97.5 244.2 94.5 245 L 91 239 L 87 239.5 L 88 242 L 83.5 244 L 85 241.5 L 87.5 238 Q 92.1 239.3 90 233.5 L 91 233.5 L 92.5 240 L 94 238 L 92 236.5 L 93.5 237 L 95 235.5 L 95.5 234 L 93.5 235 L 94.5 233 L 96.5 232 Q 98.3 235.8 100 232.5 L 102.5 229 L 106 227.5 L 107 224 L 112.5 226 Q 115.8 224.3 112 222.5 L 112 220 L 120 220 L 120 217.5 L 120 215.5 L 119 207.5 L 119 205.5 L 120.5 202 L 124 204 L 125.5 202 L 128.5 204 L 129 202.5 L 128.5 201 Z " /><path desc="l 10 p 19" fill="rgb(0,184,108)" stroke="rgb(0,184,108)" stroke-width="1" opacity="0.996078431372549" d="M 294.5 204 L 300 206.5 L 297.5 208 L 300 211.5 L 304 216.5 L 306 224 L 308 224.5 L 308 231.5 L 309 240 L 317.5 243 L 320 242 L 321.5 244 L 324 240 L 327 239.5 L 321 231.5 L 327 224.5 L 325 223.5 L 328 222 L 328 236 L 345.5 236 L 348 232 L 351 231.5 L 340 225.5 L 341 213 L 346 210.5 L 344.5 209 L 341 208 L 341.5 206 L 344 206.5 L 344.5 208 L 345 205 L 357 211.5 L 356.5 213 L 361 214.5 L 359.5 217 L 361 218.5 L 363 219.5 L 362 216.5 L 364 217.5 L 366 219 L 366.5 217 L 376 225.5 L 377 228.5 L 373 239.5 L 380 242 L 378.5 240 L 378.5 239 L 383 240.5 L 382 243.5 Q 385.7 248 384 257 L 382 257.5 L 383 260 L 381 261.5 L 383 261.5 L 380.5 267 L 378 267.5 L 378.5 270 L 379.5 268 L 380 271 L 378 271.5 L 378 273.5 L 377 278 L 373 279.5 L 373 281.5 L 371.5 283 L 369 282.5 L 370 280.5 L 367 280 L 368 282.5 L 366.5 285 L 368 285.5 L 362.5 290 L 361.5 288 L 364 287.5 L 361 287 L 359.5 284 L 358 286.5 L 360 289.5 L 358 290.5 L 358.5 289 L 355 290 L 352.5 294 L 352 292 L 354 290.5 L 354.5 289 L 353 288.5 L 354.5 288 L 356.5 289 L 355 286.5 L 353.5 285 L 350 280.5 L 354 280 L 354 272 L 346 272 L 346 268 L 351.5 264 L 351.5 263 Q 341.8 261.3 340 267.5 L 336.5 272 Q 331.1 270.1 332 273.5 L 328 276 L 327.5 280 L 311.5 280 L 304.5 288 Q 299.7 286.3 301 290.5 L 299 293.5 L 299 304 L 304 304.5 L 296 305 Q 297.3 308.3 292.5 307 L 288 306 L 287 288.5 L 288 285.5 L 286 285.5 L 287.5 284 L 290.5 285 L 295.5 283 L 297.5 284 L 300 280 Q 305.6 282.2 304 276.5 L 315 256.5 L 314 253 L 317 251.5 L 320 248.5 L 321 246.5 L 316 245 L 314.5 251 L 314 249 L 311 249.5 L 311.5 252 L 313 253.5 L 310 253.5 L 308 247.5 L 305.5 246 L 303.5 245 L 303.5 247 L 302 244 L 300 244.5 L 300.5 246 L 297 243.5 L 296.5 242 L 295 242.5 L 295.5 241 Q 291.8 242.3 293 238.5 L 291 237.5 L 292 239.5 L 289.5 238 L 288 237.5 L 291 237 L 289 232 Q 292 233.3 291 229.5 L 290.5 228 L 292 225.5 L 290 223.5 L 290 208 L 292 206.5 L 294.5 204 Z " /><path desc="l 10 p 20" fill="rgb(0,184,108)" stroke="rgb(0,184,108)" stroke-width="1" opacity="0.996078431372549" d="M 242.5 208 L 249 211 Q 247.7 207.3 253.5 209 L 255 212 L 250 214.5 L 253 215 L 252.5 217 L 245 212.5 L 245.5 211 L 242.5 208 Z " /><path desc="l 10 p 21" fill="rgb(0,184,108)" stroke="rgb(0,184,108)" stroke-width="1" opacity="0.996078431372549" d="M 136.5 221 L 143 221 L 143 226 L 144.5 226 L 148.5 225 L 148.5 226 L 145 226.5 L 149 229.5 L 147 230 L 148 234 L 152 234.5 L 148.5 235 L 140 227.5 L 141 225.5 L 139.5 226 L 138 225.5 L 140 224.5 L 129 222.5 L 136.5 221 Z " /><path desc="l 10 p 22" fill="rgb(0,184,108)" stroke="rgb(0,184,108)" stroke-width="1" opacity="0.996078431372549" d="M 162.5 227 L 166 228 L 169 231.5 L 168.5 233 L 170 233.5 L 168 234 L 168.5 236 L 170 235.5 L 169.5 242 Q 167.8 238.3 166 241.5 L 164.5 245 L 162 230 L 160 229.5 L 161.5 229 L 163.5 230 L 162.5 227 Z " /><path desc="l 10 p 23" fill="rgb(0,184,108)" stroke="rgb(0,184,108)" stroke-width="1" opacity="0.996078431372549" d="M 153 230 L 158 230 L 158 232.5 L 157 234.5 L 159 234.5 L 161 245.5 L 159 244.5 L 156.5 239 Q 152.3 240.3 154 235.5 L 153 230 Z " /><path desc="l 10 p 26" fill="rgb(0,184,108)" stroke="rgb(0,184,108)" stroke-width="1" opacity="0.996078431372549" d="M 42.5 265 L 45 265.5 L 43 268.5 L 44.5 269 L 46.5 268 L 45.5 270 L 44 270.5 L 46 271.5 L 44.5 272 L 42.5 271 L 40 271.5 L 38 280 Q 41 279 40 282 L 29.5 282 L 28 280.5 L 29.5 278 L 29.5 277 L 28 276.5 L 30.5 275 L 31.5 278 L 33 272.5 L 32.5 271 L 36.5 272 L 40 270.5 L 40.5 266 L 40.5 268 L 43 266.5 L 42.5 265 Z " /><path desc="l 10 p 27" fill="rgb(0,184,108)" stroke="rgb(0,184,108)" stroke-width="1" opacity="0.996078431372549" d="M 84 272 L 91 272 L 91 274.5 L 93 280 Q 88.9 278.3 90 282.5 L 87.5 283 L 83 285.5 L 83.5 291 L 84 288 L 86 289.5 L 85.5 293 L 92 293.5 L 89 294 L 88 297.5 L 91 299.5 L 89.5 300 L 88 299.5 L 86 303.5 L 85.5 306 L 80.5 309 L 79 308.5 L 77.5 310 L 73.5 313 L 72 312.5 L 71.5 314 L 70 313.5 L 69.5 315 L 68.5 313 L 67 317 L 65 317.5 L 65 319.5 Q 61.2 324.2 63 334.5 L 64 337 Q 58 335 60 341 L 64.5 342 L 66 341.5 L 63.5 342 Q 58.7 340.7 60 344 L 63 344.5 L 56.5 352 L 51 350.5 L 49.5 349 L 48 343.5 L 52 335.5 L 52 328 L 56 328 L 56 326.5 L 57 323.5 L 52 311.5 L 53 309 L 56 307.5 L 56 288.5 L 63.5 280 L 75.5 280 L 76 278.5 L 84 273.5 L 84 272 Z " /><path desc="l 10 p 28" fill="rgb(0,184,108)" stroke="rgb(0,184,108)" stroke-width="1" opacity="0.996078431372549" d="M 108.5 272 Q 111.5 271.5 110 278.5 L 111 278.5 L 112.5 276 L 116 274.5 L 114.5 272 L 116 274 L 120 274 L 120 279 L 114 280.5 L 117 281.5 L 116.5 283 Q 120.3 281.8 119 285.5 L 115.5 288 L 116.5 286 L 118 285.5 L 115.5 285 L 112 286.5 L 113 290 L 109.5 289 L 109 291 L 105.5 293 L 104.5 290 L 103 290.5 L 105 287 L 101 288.5 L 101.5 290 L 97.5 289 L 94.5 290 L 93 283.5 L 94 280 L 99.5 280 L 100 278.5 L 107 275 L 108.5 272 Z " /><path desc="l 10 p 29" fill="rgb(0,184,108)" stroke="rgb(0,184,108)" stroke-width="1" opacity="0.996078431372549" d="M 328 286 L 344.5 286 L 348 288 L 346 292 Q 349.7 290.6 348 296.5 L 350 296.5 L 347 298 L 345.5 295 L 342.5 294 L 344 296.5 L 344.5 298 L 346 297.5 L 345.5 300 L 342.5 299 L 336 300.5 L 336.5 304 L 335 305.5 L 331 307 L 330.5 309 L 330 307.5 L 330.5 306 L 322 302.5 L 320 296.5 L 328 286 Z " /><path desc="l 10 p 30" fill="rgb(0,184,108)" stroke="rgb(0,184,108)" stroke-width="1" opacity="0.996078431372549" d="M 246.5 300 L 252 301.5 L 249 302 Q 247.8 305.7 253 304 L 253.5 302 L 254 304 L 258 304 L 258 305.5 Q 262 310.5 260 321.5 L 262.5 324 L 267 325 L 269 331 L 272 332.5 L 273 335.5 L 268 337 L 268 341 L 271.5 343 L 271.5 344 L 263 345.5 L 265.5 346 L 267 345.5 L 259 348 Q 260.5 351.7 257.5 351 L 253.5 353 L 253.5 352 L 257 350.5 L 256 348 L 248.5 352 L 246.5 351 L 245.5 353 L 251.5 352 L 252 354 Q 244.5 355 241 352 Q 239.8 355 243.5 354 L 243 357.5 L 244 359.5 L 242 359.5 L 241.5 361 L 237.5 361 L 236 361.5 L 235.5 364 L 233.5 363 L 234 364.5 L 231.5 366 L 226.5 369 L 224.5 369 L 221.5 370 L 221.5 369 L 226 365.5 L 224.5 364 L 220.5 365 L 218 363.5 L 220 361.5 L 220 352 L 216 352 L 216 344 L 219.5 344 L 227 339 L 229 333 L 236 329.5 L 237.5 328 Q 241.5 326.3 240 320 L 243 319.5 L 243 304.5 L 245.5 304 L 245 302.5 L 246.5 300 Z " /><path desc="l 10 p 31" fill="rgb(0,184,108)" stroke="rgb(0,184,108)" stroke-width="1" opacity="0.996078431372549" d="M 308.5 308 L 311.5 310 L 313.5 310 L 317.5 309 L 320 310 L 321.5 312 L 321.5 313 L 312 318 L 312 320 L 307.5 322 L 299.5 327 L 297.5 326 L 297.5 328 L 295.5 327 L 293 328.5 Q 294.5 324.1 291.5 325 L 291.5 322 L 293 320 L 291 319.5 L 291 311 L 306.5 309 L 306.5 310 Q 302.8 309 304 312 L 308 310.5 L 308.5 308 Z " /><path desc="l 10 p 32" fill="rgb(0,184,108)" stroke="rgb(0,184,108)" stroke-width="1" opacity="0.996078431372549" d="M 30 320 L 36 323.5 L 39 327.5 L 35.5 336 L 32 331.5 L 32 328 L 30 327.5 L 30 320 Z " /><path desc="l 10 p 33" fill="rgb(0,184,108)" stroke="rgb(0,184,108)" stroke-width="1" opacity="0.996078431372549" d="M 78.5 350 L 80.5 353 L 82 352.5 L 82.5 354 L 84 353.5 L 83.5 355 L 85 355.5 L 84.5 357 L 87.5 356 L 88.5 359 Q 90.8 354.8 93 359.5 L 90.5 358 L 88 360.5 L 89.5 363 L 91 362.5 Q 91.5 365.5 84.5 364 L 80.5 361 L 80 363.5 Q 78.5 367.9 81.5 367 L 81 365.5 L 81.5 364 L 82 366 L 86 367.5 L 84 367.5 L 83 371 L 75 367.5 L 75 358.5 L 78 352.5 L 78.5 350 Z " /><path desc="l 10 p 34" fill="rgb(0,184,108)" stroke="rgb(0,184,108)" stroke-width="1" opacity="0.996078431372549" d="M 29.5 363 Q 35.8 361.8 37 365.5 L 38 376.5 L 36.5 384 L 35 381 L 32 379.5 Q 33.5 372.5 30.5 373 L 27 365.5 L 29.5 363 Z " /><path desc="l 10 p 35" fill="rgb(0,184,108)" stroke="rgb(0,184,108)" stroke-width="1" opacity="0.996078431372549" d="M 140.5 387 L 143 388 L 141 391.5 L 144 392 L 143.5 394 L 141 393.5 L 140.5 392 L 136.5 393 L 132 390.5 L 133.5 389 L 136.5 390 L 136.5 388 L 138.5 389 L 140.5 387 Z " /><path desc="l 10 p 36" fill="rgb(0,184,108)" stroke="rgb(0,184,108)" stroke-width="1" opacity="0.996078431372549" d="M 55.5 400 L 61.5 402 L 61.5 400 L 64 401.5 L 62 402.5 L 67 405.5 L 64.5 406 L 63 405.5 L 65.5 409 L 67 408.5 Q 65.3 411.8 63.5 408 L 61.5 407 L 58.5 406 L 57 405.5 L 62 404.5 L 55.5 402 L 55.5 403 L 57 403.5 L 55.5 404 L 53 402.5 L 55 402 L 55.5 400 Z " /><path desc="l 10 p 37" fill="rgb(0,184,108)" stroke="rgb(0,184,108)" stroke-width="1" opacity="0.996078431372549" d="M 96 400 L 105 400.5 L 104 404 L 100 405.5 L 101.5 408 L 104 409.5 Q 103.2 406.5 107 408 L 107 405 L 109.5 405 L 112 404 L 112 415.5 L 110.5 416 L 108 421.5 L 112 430 L 108 430 Q 109 427 106 428 L 105 430.5 L 105.5 432 L 101.5 430 L 97.5 428 L 95 427.5 L 94.5 426 L 92.5 426 L 91 425.5 L 91.5 424 L 87 423 L 86.5 421 L 85 421.5 L 84.5 420 L 83 420.5 L 84 418.5 L 82.5 418 L 80 417.5 L 79 415.5 L 81 416.5 L 81.5 418 L 83.5 417 L 85.5 418 L 85.5 416 L 88 415.5 L 78 411 L 76.5 414 L 75.5 411 L 74 411.5 L 75.5 410 L 77.5 409 L 79.5 410 L 82.5 409 L 88 411 L 88 408 L 96 408 L 96 400 Z " /><path desc="l 10 p 38" fill="rgb(0,184,108)" stroke="rgb(0,184,108)" stroke-width="1" opacity="0.996078431372549" d="M 164.5 401 L 165 402.5 L 164.5 404 L 170 405.5 L 168 406.5 L 170 407.5 L 168 408 Q 166.8 411 170.5 410 L 174 408 L 173 414 L 168.5 416 L 168 414 L 164 414 L 162.5 412 L 160.5 412 L 157 411 L 156 407 L 161.5 409 L 162 406.5 L 161.5 404 L 160 404.5 L 161 402 L 164.5 401 Z " /><path desc="l 10 p 39" fill="rgb(0,184,108)" stroke="rgb(0,184,108)" stroke-width="1" opacity="0.996078431372549" d="M 69.5 403 L 72 404.5 L 74 404.5 L 72.5 407 L 76 405.5 L 75.5 404 L 76 406.5 L 73.5 408 L 69.5 411 Q 66.3 409.3 70 407.5 L 71 404 L 69.5 403 Z " /><path desc="l 10 p 40" fill="rgb(0,184,108)" stroke="rgb(0,184,108)" stroke-width="1" opacity="0.996078431372549" d="M 275.5 414 L 280.5 415 L 284 414 L 285.5 416 L 287.5 415 L 291 416 L 290 419.5 L 292 418.5 L 292.5 417 L 296 419 L 296.5 421 L 298 420.5 L 297 423 L 290.5 421 L 288.5 422 L 287 421.5 L 286.5 424 L 285 421 L 280.5 423 L 280 421 L 276 420 L 275.5 414 Z " /><path desc="l 10 p 41" fill="rgb(0,184,108)" stroke="rgb(0,184,108)" stroke-width="1" opacity="0.996078431372549" d="M 410.5 415 L 411 417.5 L 408.5 420 L 406.5 421 L 406 419 L 404 419.5 L 404.5 421 L 398.5 425 L 395 424 L 394.5 426 L 394 422 L 387.5 420 L 387 422 L 390 423.5 L 392.5 425 L 392.5 426 L 389 426.5 L 395 427.5 Q 388 427 385.5 431 L 383.5 428 L 380 430.5 L 380.5 434 L 383 432.5 L 381.5 436 Q 379.3 431.8 377 436.5 L 377.5 438 Q 375 433.5 372.5 439 L 368 439.5 L 369 442.5 L 368 442.5 L 367 438.5 L 368 436.5 L 360.5 433 L 356 434 L 357.5 432 L 359.5 433 L 364 432 L 364 424 Q 370 426 368 420 L 385.5 420 L 386 418 L 384 417.5 L 385.5 417 L 392 418 L 392.5 416 L 399.5 416 L 401.5 416 L 403.5 417 L 405.5 416 L 405.5 418 L 410.5 415 Z " /><path desc="l 10 p 42" fill="rgb(0,184,108)" stroke="rgb(0,184,108)" stroke-width="1" opacity="0.996078431372549" d="M 193.5 418 L 199 421.5 L 197 422 L 197.5 424 L 200.5 422 L 205 425.5 L 206 428.5 L 204 428.5 L 206.5 430 L 209 431 L 207.5 429 L 207.5 428 L 209.5 427 L 211.5 431 L 213 430.5 L 213 432.5 L 211.5 435 L 209 434 L 207.5 432 L 205.5 431 L 204 431.5 L 201 426.5 L 204 427.5 L 202.5 424 L 201 424.5 L 200.5 423 L 199.5 426 L 195 423.5 L 196 421.5 L 193.5 418 Z " /><path desc="l 10 p 43" fill="rgb(0,184,108)" stroke="rgb(0,184,108)" stroke-width="1" opacity="0.996078431372549" d="M 259 425 L 261 426.5 L 265.5 433 L 267.5 432 L 266 434.5 L 267.5 436 L 267.5 437 L 265.5 436 L 263 436.5 L 262 439.5 L 262.5 441 L 261 438.5 L 259 439.5 L 260.5 442 L 262 442.5 L 259.5 444 L 257.5 440 Q 254.1 440.9 256 435.5 L 258.5 437 L 260 435.5 L 254 432 L 255.5 430 L 257 430.5 L 259 425 Z " /><path desc="l 10 p 44" fill="rgb(0,184,108)" stroke="rgb(0,184,108)" stroke-width="1" opacity="0.996078431372549" d="M 112.5 431 L 117 432 Q 115.3 436.1 119.5 435 L 122 434 L 121 436.5 L 121.5 438 L 120 436 L 116.5 436 L 112.5 435 L 111.5 438 Q 108.3 436.3 112 434.5 L 111.5 433 L 109 434.5 L 112.5 431 Z " /><path desc="l 10 p 45" fill="rgb(0,184,108)" stroke="rgb(0,184,108)" stroke-width="1" opacity="0.996078431372549" d="M 284.5 432 L 287 433 L 288 435.5 L 285 434.5 L 287.5 441 L 289.5 440 L 291.5 445 L 286 440.5 Q 287.3 435.7 284 437 L 283.5 439 L 281 435.5 L 284 436.5 L 283 434.5 L 285 433.5 L 284.5 432 Z " /><path desc="l 10 p 46" fill="rgb(0,184,108)" stroke="rgb(0,184,108)" stroke-width="1" opacity="0.996078431372549" d="M 308.5 442 L 310 442.5 L 310 449.5 L 309 451.5 L 310 456 L 306 458 L 306 460.5 L 305 460.5 L 305 456 Q 309.1 457.7 308 453.5 L 307 448 Q 310 449 309 446 Q 306 447.3 307 443.5 L 308.5 442 Z " /><path desc="l 10 p 47" fill="rgb(0,184,108)" stroke="rgb(0,184,108)" stroke-width="1" opacity="0.996078431372549" d="M 170 453 L 176 453 L 176 459.5 L 177.5 460 L 181 467 L 184 468.5 L 185 474 Q 189.1 472.3 188 476.5 L 186.5 476 L 180 474 L 178.5 477 L 179 475.5 L 180 472.5 L 178.5 473 L 177 473.5 L 176.5 476 L 162 468 L 161 465.5 L 164 466.5 L 163 464.5 L 166 466.5 L 166.5 468 L 167 465.5 L 168 462.5 L 168 460 L 170 459.5 L 170 453 Z " /><path desc="l 10 p 48" fill="rgb(0,184,108)" stroke="rgb(0,184,108)" stroke-width="1" opacity="0.996078431372549" d="M 259.5 458 L 263 464 L 268 466.5 L 267.5 468 L 269 468.5 L 268.5 470 L 271 468.5 L 270.5 467 L 274 468.5 L 268.5 471 L 266.5 470 L 266.5 472 L 264.5 471 L 264 473 L 260.5 475 L 259.5 472 L 258 471.5 L 260 471 L 256 465.5 L 258 465 L 259 462.5 L 257.5 460 L 259.5 458 Z " /><path desc="l 10 p 49" fill="rgb(0,184,108)" stroke="rgb(0,184,108)" stroke-width="1" opacity="0.996078431372549" d="M 224 464 L 230 464 L 230 480 L 248 480 L 248 472 L 251 472 L 251 480 L 246.5 482 Q 241 488.2 228 486 L 227.5 488 L 224 486 L 223.5 488 L 214 488 L 214 490.5 L 215.5 493 L 213 492 L 214 496.5 L 212.5 496 L 210 494.5 L 206.5 489 L 203.5 490 L 203.5 489 L 207.5 487 L 207.5 489 Q 210.5 488.2 209 492 L 212.5 492 L 212 490.5 L 214 482 Q 209.9 483.3 211 480 L 224 480 L 224 464 Z " /><path desc="l 12 p 0" fill="rgb(0,181,111)" stroke="rgb(0,181,111)" stroke-width="1" opacity="0.996078431372549" d="M 338 87 Q 341 85.8 340 89.5 L 344.5 95 L 346 97.5 L 343.5 96 L 342 97.5 L 340 99 L 341 93.5 L 339.5 90 L 338 93 L 336 91.5 L 338 87 Z " /><path desc="l 12 p 1" fill="rgb(0,181,111)" stroke="rgb(0,181,111)" stroke-width="1" opacity="0.996078431372549" d="M 64 146 L 68 147.5 Q 65.8 153.8 71.5 152 Q 75.2 154.2 70 156.5 L 72 160 L 68.5 162 L 68 159.5 Q 69.8 151.7 65.5 150 L 64 150 L 64 146 Z " /><path desc="l 12 p 2" fill="rgb(0,181,111)" stroke="rgb(0,181,111)" stroke-width="1" opacity="0.996078431372549" d="M 143.5 231 L 148 236.5 L 148 238.5 L 145.5 246 L 146 244.5 L 147 238.5 L 146.5 236 L 145 235.5 L 143.5 231 Z " /><path desc="l 12 p 3" fill="rgb(0,181,111)" stroke="rgb(0,181,111)" stroke-width="1" opacity="0.996078431372549" d="M 21.5 372 L 24 372 L 30 379.5 L 29 382.5 L 31 385.5 L 30 385.5 L 28.5 384 L 27 384.5 L 26 381.5 Q 27.3 374.3 22.5 373 L 21.5 372 Z " /><path desc="l 12 p 4" fill="rgb(0,181,111)" stroke="rgb(0,181,111)" stroke-width="1" opacity="0.996078431372549" d="M 341.5 391 L 350 395.5 L 347.5 397 L 346 394 L 341.5 392 L 338 394.5 L 340 395.5 L 336.5 398 L 335 397.5 L 333.5 399 L 332 399.5 L 338 395.5 L 336 394.5 L 341.5 391 Z " /><path desc="l 12 p 5" fill="rgb(0,181,111)" stroke="rgb(0,181,111)" stroke-width="1" opacity="0.996078431372549" d="M 271.5 413 L 275 414 Q 276.2 417.7 271 416 L 271 420 L 268 420 Q 269.5 416.2 266.5 417 L 263.5 416 L 260.5 417 L 258 416.5 L 261.5 415 L 264.5 414 L 266.5 415 L 271.5 413 Z " /><path desc="l 15 p 0" fill="rgb(6,172,112)" stroke="rgb(6,172,112)" stroke-width="1" opacity="0.6627450980392157" d="M 232.5 2 L 253.5 2 L 258 3.5 L 253.5 4 L 233.5 3 Q 211.9 6.9 197.5 18 L 198.5 16 Q 212.6 6.1 232.5 2 Z " /><path desc="l 15 p 1" fill="rgb(6,172,112)" stroke="rgb(6,172,112)" stroke-width="1" opacity="0.6627450980392157" d="M 161.5 38 L 160.5 40 L 135.5 54 L 136.5 52 L 161.5 38 Z " /><path desc="l 15 p 2" fill="rgb(6,172,112)" stroke="rgb(6,172,112)" stroke-width="1" opacity="0.6627450980392157" d="M 354.5 54 L 369.5 54 L 380 58.5 L 378.5 59 L 368.5 55 L 354.5 55 L 354.5 54 Z " /><path desc="l 15 p 3" fill="rgb(6,172,112)" stroke="rgb(6,172,112)" stroke-width="1" opacity="0.6627450980392157" d="M 304.5 61 L 305 62.5 L 299 75.5 L 297 90 L 292 87.5 L 293.5 88 L 295.5 89 Q 297.2 72.2 304.5 61 Z " /><path desc="l 15 p 4" fill="rgb(6,172,112)" stroke="rgb(6,172,112)" stroke-width="1" opacity="0.6627450980392157" d="M 338.5 61 L 337.5 63 L 328 71.5 L 324.5 79 L 324 76.5 L 332.5 65 L 338.5 61 Z " /><path desc="l 15 p 5" fill="rgb(6,172,112)" stroke="rgb(6,172,112)" stroke-width="1" opacity="0.6627450980392157" d="M 241.5 62 L 254.5 64 L 266 71.5 L 264.5 72 L 254.5 65 L 241.5 63 L 236.5 64 L 219.5 74 L 220.5 72 L 241.5 62 Z " /><path desc="l 15 p 6" fill="rgb(6,172,112)" stroke="rgb(6,172,112)" stroke-width="1" opacity="0.6627450980392157" d="M 389.5 65 Q 398.1 70.4 400 81 L 406 84.5 L 403.5 83 L 399 80.5 L 389.5 65 Z " /><path desc="l 15 p 7" fill="rgb(6,172,112)" stroke="rgb(6,172,112)" stroke-width="1" opacity="0.6627450980392157" d="M 111.5 67 L 110.5 69 L 81.5 86 L 82.5 84 L 111.5 67 Z " /><path desc="l 15 p 8" fill="rgb(6,172,112)" stroke="rgb(6,172,112)" stroke-width="1" opacity="0.6627450980392157" d="M 355.5 79 L 357 79.5 L 348 86.5 L 347 97.5 L 352.5 106 L 361 108.5 L 356.5 109 L 348 102.5 Q 344.5 98.5 346 89.5 L 353.5 80 L 355.5 79 Z " /><path desc="l 15 p 9" fill="rgb(6,172,112)" stroke="rgb(6,172,112)" stroke-width="1" opacity="0.6627450980392157" d="M 365.5 79 L 374 85.5 L 377 95.5 L 369.5 107 L 373 102.5 L 376 93.5 Q 374.5 85 368.5 81 L 365.5 79 Z " /><path desc="l 15 p 10" fill="rgb(6,172,112)" stroke="rgb(6,172,112)" stroke-width="1" opacity="0.6627450980392157" d="M 67.5 93 L 66.5 95 L 49.5 105 L 51.5 102 L 67.5 93 Z " /><path desc="l 15 p 11" fill="rgb(6,172,112)" stroke="rgb(6,172,112)" stroke-width="1" opacity="0.6627450980392157" d="M 162.5 106 L 161.5 108 L 142.5 119 L 143.5 117 L 162.5 106 Z " /><path desc="l 15 p 12" fill="rgb(6,172,112)" stroke="rgb(6,172,112)" stroke-width="1" opacity="0.6627450980392157" d="M 40.5 109 L 39.5 111 Q 26.2 116.2 18 126.5 L 7 146.5 L 4 161.5 L 4 257 L 26.5 244 L 25.5 246 L 5 258.5 L 3 260 L 4 153.5 Q 9.9 129.9 26.5 117 L 40.5 109 Z " /><path desc="l 15 p 13" fill="rgb(6,172,112)" stroke="rgb(6,172,112)" stroke-width="1" opacity="0.6627450980392157" d="M 455.5 113 Q 467.1 118.4 474 128.5 L 463.5 119 L 455.5 113 Z " /><path desc="l 15 p 14" fill="rgb(6,172,112)" stroke="rgb(6,172,112)" stroke-width="1" opacity="0.6627450980392157" d="M 343.5 128 L 352.5 132 L 371.5 132 L 385 140.5 L 383.5 140 L 371.5 133 L 352.5 133 L 344.5 130 L 343.5 128 Z " /><path desc="l 15 p 15" fill="rgb(6,172,112)" stroke="rgb(6,172,112)" stroke-width="1" opacity="0.6627450980392157" d="M 121.5 130 L 120.5 132 L 103.5 142 L 104.5 140 L 121.5 130 Z " /><path desc="l 15 p 16" fill="rgb(6,172,112)" stroke="rgb(6,172,112)" stroke-width="1" opacity="0.6627450980392157" d="M 476.5 133 L 482 141.5 L 486 155.5 L 486 349.5 L 485 349.5 L 485 155.5 Q 482.3 141.5 476.5 133 Z " /><path desc="l 15 p 17" fill="rgb(6,172,112)" stroke="rgb(6,172,112)" stroke-width="1" opacity="0.6627450980392157" d="M 63.5 172 L 64 224 L 62 223.5 L 63.5 172 Z " /><path desc="l 15 p 18" fill="rgb(6,172,112)" stroke="rgb(6,172,112)" stroke-width="1" opacity="0.6627450980392157" d="M 186.5 175 L 192.5 182 L 203 188.5 L 201.5 188 L 187 177.5 L 186.5 175 Z " /><path desc="l 15 p 19" fill="rgb(6,172,112)" stroke="rgb(6,172,112)" stroke-width="1" opacity="0.6627450980392157" d="M 310.5 183 L 333 196.5 L 331.5 196 L 310.5 183 Z " /><path desc="l 15 p 20" fill="rgb(6,172,112)" stroke="rgb(6,172,112)" stroke-width="1" opacity="0.6627450980392157" d="M 128.5 224 Q 139.4 223.6 143 230.5 L 145 235.5 L 144 235.5 L 139.5 228 L 128.5 225 L 121.5 228 L 122.5 226 L 128.5 224 Z " /><path desc="l 15 p 21" fill="rgb(6,172,112)" stroke="rgb(6,172,112)" stroke-width="1" opacity="0.6627450980392157" d="M 295.5 243 L 310 252.5 L 288.5 266 L 290.5 263 L 309 252.5 L 295.5 243 Z " /><path desc="l 15 p 22" fill="rgb(6,172,112)" stroke="rgb(6,172,112)" stroke-width="1" opacity="0.6627450980392157" d="M 117.5 248 Q 121.1 255.9 134.5 254 L 138.5 252 L 137.5 254 L 128.5 256 Q 119.7 254.5 117.5 248 Z " /><path desc="l 15 p 23" fill="rgb(6,172,112)" stroke="rgb(6,172,112)" stroke-width="1" opacity="0.6627450980392157" d="M 59.5 253 L 61 253.5 L 43.5 264 L 44.5 262 L 59.5 253 Z " /><path desc="l 15 p 24" fill="rgb(6,172,112)" stroke="rgb(6,172,112)" stroke-width="1" opacity="0.6627450980392157" d="M 164.5 262 L 163 264.5 L 158.5 270 Q 149.5 280 130.5 280 L 130.5 279 L 145.5 277 L 162 265.5 L 164.5 262 Z " /><path desc="l 15 p 25" fill="rgb(6,172,112)" stroke="rgb(6,172,112)" stroke-width="1" opacity="0.6627450980392157" d="M 268.5 276 L 270 276.5 L 254.5 286 L 256.5 283 L 268.5 276 Z " /><path desc="l 15 p 26" fill="rgb(6,172,112)" stroke="rgb(6,172,112)" stroke-width="1" opacity="0.6627450980392157" d="M 9.5 287 L 9 288.5 L 4 303.5 L 4 348.5 L 7 360.5 L 12 370.5 L 10 369.5 L 3 349.5 L 3 300.5 L 9.5 287 Z " /><path desc="l 15 p 27" fill="rgb(6,172,112)" stroke="rgb(6,172,112)" stroke-width="1" opacity="0.6627450980392157" d="M 115.5 288 L 114.5 290 L 95.5 301 L 96.5 299 L 115.5 288 Z " /><path desc="l 15 p 28" fill="rgb(6,172,112)" stroke="rgb(6,172,112)" stroke-width="1" opacity="0.6627450980392157" d="M 231.5 298 L 233 298.5 L 200.5 318 L 201.5 316 L 231.5 298 Z " /><path desc="l 15 p 29" fill="rgb(6,172,112)" stroke="rgb(6,172,112)" stroke-width="1" opacity="0.6627450980392157" d="M 80.5 309 L 79.5 311 L 68 317 L 64.5 324 L 64 321.5 L 68.5 316 L 80.5 309 Z " /><path desc="l 15 p 30" fill="rgb(6,172,112)" stroke="rgb(6,172,112)" stroke-width="1" opacity="0.6627450980392157" d="M 328.5 310 L 327.5 312 L 313.5 320 L 314.5 318 L 328.5 310 Z " /><path desc="l 15 p 31" fill="rgb(6,172,112)" stroke="rgb(6,172,112)" stroke-width="1" opacity="0.6627450980392157" d="M 63.5 325 L 65 336.5 L 70 344.5 L 67 342.5 L 64 336.5 L 63.5 325 Z " /><path desc="l 15 p 32" fill="rgb(6,172,112)" stroke="rgb(6,172,112)" stroke-width="1" opacity="0.6627450980392157" d="M 285.5 335 L 284.5 337 L 262.5 350 L 263.5 348 L 285.5 335 Z " /><path desc="l 15 p 33" fill="rgb(6,172,112)" stroke="rgb(6,172,112)" stroke-width="1" opacity="0.6627450980392157" d="M 417.5 345 L 416.5 347 L 384.5 366 L 385.5 364 L 417.5 345 Z " /><path desc="l 15 p 34" fill="rgb(6,172,112)" stroke="rgb(6,172,112)" stroke-width="1" opacity="0.6627450980392157" d="M 74.5 347 L 102 363.5 L 100.5 363 L 74.5 347 Z " /><path desc="l 15 p 35" fill="rgb(6,172,112)" stroke="rgb(6,172,112)" stroke-width="1" opacity="0.6627450980392157" d="M 484.5 351 L 485 355.5 L 475.5 374 L 477 371.5 L 484.5 351 Z " /><path desc="l 15 p 36" fill="rgb(6,172,112)" stroke="rgb(6,172,112)" stroke-width="1" opacity="0.6627450980392157" d="M 186.5 358 L 194.5 367 L 204 371.5 L 201.5 372 L 187 360.5 L 186.5 358 Z " /><path desc="l 15 p 37" fill="rgb(6,172,112)" stroke="rgb(6,172,112)" stroke-width="1" opacity="0.6627450980392157" d="M 474.5 375 L 473 377.5 L 464.5 387 L 450.5 396 L 451.5 394 Q 463.9 388.4 472 378.5 L 474.5 375 Z " /><path desc="l 15 p 38" fill="rgb(6,172,112)" stroke="rgb(6,172,112)" stroke-width="1" opacity="0.6627450980392157" d="M 20.5 382 L 39 395.5 L 37.5 396 L 20.5 382 Z " /><path desc="l 15 p 39" fill="rgb(6,172,112)" stroke="rgb(6,172,112)" stroke-width="1" opacity="0.6627450980392157" d="M 147.5 390 L 170 403.5 L 167.5 402 L 148.5 392 L 147.5 390 Z " /><path desc="l 15 p 40" fill="rgb(6,172,112)" stroke="rgb(6,172,112)" stroke-width="1" opacity="0.6627450980392157" d="M 322.5 401 L 321.5 403 L 318 404.5 L 331 419.5 L 328 417.5 L 317 404.5 L 322.5 401 Z " /><path desc="l 15 p 41" fill="rgb(6,172,112)" stroke="rgb(6,172,112)" stroke-width="1" opacity="0.6627450980392157" d="M 421.5 412 L 419.5 415 L 406.5 422 L 407.5 420 L 421.5 412 Z " /><path desc="l 15 p 42" fill="rgb(6,172,112)" stroke="rgb(6,172,112)" stroke-width="1" opacity="0.6627450980392157" d="M 289.5 415 Q 301.1 417.9 307 426.5 L 309 429.5 L 306 427.5 L 301.5 422 L 289.5 415 Z " /><path desc="l 15 p 43" fill="rgb(6,172,112)" stroke="rgb(6,172,112)" stroke-width="1" opacity="0.6627450980392157" d="M 194.5 417 L 218 431.5 L 216.5 431 L 198.5 421 L 194.5 417 Z " /><path desc="l 15 p 44" fill="rgb(6,172,112)" stroke="rgb(6,172,112)" stroke-width="1" opacity="0.6627450980392157" d="M 82.5 421 L 117 441.5 L 115.5 441 L 83.5 423 L 82.5 421 Z " /><path desc="l 15 p 45" fill="rgb(6,172,112)" stroke="rgb(6,172,112)" stroke-width="1" opacity="0.6627450980392157" d="M 394.5 428 L 393.5 430 L 378 438 Q 379.3 441 375.5 440 L 367.5 445 L 368.5 443 L 394.5 428 Z " /><path desc="l 15 p 46" fill="rgb(6,172,112)" stroke="rgb(6,172,112)" stroke-width="1" opacity="0.6627450980392157" d="M 269.5 437 Q 284.2 434.8 288 443.5 L 284.5 441 L 278.5 438 L 270.5 438 L 263.5 442 L 264.5 440 L 269.5 437 Z " /><path desc="l 15 p 47" fill="rgb(6,172,112)" stroke="rgb(6,172,112)" stroke-width="1" opacity="0.6627450980392157" d="M 340.5 447 L 341 459 L 358.5 449 L 357.5 451 L 340 460 L 340.5 447 Z " /><path desc="l 15 p 48" fill="rgb(6,172,112)" stroke="rgb(6,172,112)" stroke-width="1" opacity="0.6627450980392157" d="M 135.5 452 L 158 465.5 L 156.5 466 L 135.5 452 Z " /><path desc="l 15 p 49" fill="rgb(6,172,112)" stroke="rgb(6,172,112)" stroke-width="1" opacity="0.6627450980392157" d="M 288.5 458 L 289 459.5 Q 284.9 467.9 272.5 468 L 262 461.5 L 263.5 462 L 266.5 464 L 277.5 467 L 288 459.5 L 288.5 458 Z " /><path desc="l 15 p 50" fill="rgb(6,172,112)" stroke="rgb(6,172,112)" stroke-width="1" opacity="0.6627450980392157" d="M 305.5 478 L 298.5 486 L 292.5 489 L 292.5 488 L 305.5 478 Z " /><path desc="l 15 p 51" fill="rgb(6,172,112)" stroke="rgb(6,172,112)" stroke-width="1" opacity="0.6627450980392157" d="M 286.5 491 L 285.5 493 L 266.5 501 L 266.5 500 Q 278.6 497.6 286.5 491 Z " /><path desc="l 15 p 52" fill="rgb(6,172,112)" stroke="rgb(6,172,112)" stroke-width="1" opacity="0.6627450980392157" d="M 221.5 500 L 231.5 503 L 245.5 504 L 256.5 503 L 256.5 504 L 238.5 505 L 223.5 502 L 221.5 500 Z " /></svg>